<svg xmlns="http://www.w3.org/2000/svg" xmlns:xlink="http://www.w3.org/1999/xlink" width="1080" zoomAndPan="magnify" viewBox="0 0 810 809.999993" height="1080" preserveAspectRatio="xMidYMid meet" version="1.0"><defs><clipPath id="c74f82d966"><path d="M 452.09375 477.839844 L 684.375 477.839844 L 684.375 502.21875 L 452.09375 502.21875 Z M 452.09375 477.839844 " clip-rule="nonzero"/></clipPath><clipPath id="b998c5008a"><path d="M 684.375 490.027344 C 684.375 496.761719 678.917969 502.21875 672.183594 502.21875 L 464.371094 502.21875 C 457.636719 502.21875 452.179688 496.761719 452.179688 490.027344 C 452.179688 483.296875 457.636719 477.839844 464.371094 477.839844 L 672.183594 477.839844 C 678.917969 477.839844 684.375 483.296875 684.375 490.027344 Z M 684.375 490.027344 " clip-rule="nonzero"/></clipPath><clipPath id="b3234dcb8b"><path d="M 0.160156 0.839844 L 232.375 0.839844 L 232.375 25.21875 L 0.160156 25.21875 Z M 0.160156 0.839844 " clip-rule="nonzero"/></clipPath><clipPath id="17146b8d19"><path d="M 232.375 13.027344 C 232.375 19.761719 226.917969 25.21875 220.183594 25.21875 L 12.371094 25.21875 C 5.636719 25.21875 0.179688 19.761719 0.179688 13.027344 C 0.179688 6.296875 5.636719 0.839844 12.371094 0.839844 L 220.183594 0.839844 C 226.917969 0.839844 232.375 6.296875 232.375 13.027344 Z M 232.375 13.027344 " clip-rule="nonzero"/></clipPath><clipPath id="8d815d0651"><rect x="0" width="233" y="0" height="26"/></clipPath><clipPath id="0a2a925b3e"><path d="M 355.542969 421.542969 L 494.515625 421.542969 L 494.515625 502.214844 L 355.542969 502.214844 Z M 355.542969 421.542969 " clip-rule="nonzero"/></clipPath><clipPath id="2080bb430b"><path d="M 368.292969 421.542969 L 481.5 421.542969 C 484.882812 421.542969 488.125 422.886719 490.515625 425.277344 C 492.90625 427.667969 494.25 430.910156 494.25 434.292969 L 494.25 489.464844 C 494.25 492.847656 492.90625 496.089844 490.515625 498.480469 C 488.125 500.875 484.882812 502.214844 481.5 502.214844 L 368.292969 502.214844 C 364.910156 502.214844 361.667969 500.875 359.277344 498.480469 C 356.886719 496.089844 355.542969 492.847656 355.542969 489.464844 L 355.542969 434.292969 C 355.542969 430.910156 356.886719 427.667969 359.277344 425.277344 C 361.667969 422.886719 364.910156 421.542969 368.292969 421.542969 Z M 368.292969 421.542969 " clip-rule="nonzero"/></clipPath><clipPath id="af8aa90d6d"><path d="M 0.542969 0.542969 L 139.398438 0.542969 L 139.398438 81.214844 L 0.542969 81.214844 Z M 0.542969 0.542969 " clip-rule="nonzero"/></clipPath><clipPath id="6a6551b61a"><path d="M 13.292969 0.542969 L 126.5 0.542969 C 129.882812 0.542969 133.125 1.886719 135.515625 4.277344 C 137.90625 6.667969 139.25 9.910156 139.25 13.292969 L 139.25 68.464844 C 139.25 71.847656 137.90625 75.089844 135.515625 77.480469 C 133.125 79.875 129.882812 81.214844 126.5 81.214844 L 13.292969 81.214844 C 9.910156 81.214844 6.667969 79.875 4.277344 77.480469 C 1.886719 75.089844 0.542969 71.847656 0.542969 68.464844 L 0.542969 13.292969 C 0.542969 9.910156 1.886719 6.667969 4.277344 4.277344 C 6.667969 1.886719 9.910156 0.542969 13.292969 0.542969 Z M 13.292969 0.542969 " clip-rule="nonzero"/></clipPath><clipPath id="dc6dc744bc"><rect x="0" width="140" y="0" height="82"/></clipPath><clipPath id="aa990767d0"><path d="M 331.753906 308.398438 L 684.746094 308.398438 L 684.746094 347.019531 L 331.753906 347.019531 Z M 331.753906 308.398438 " clip-rule="nonzero"/></clipPath><clipPath id="ee8c31b21b"><path d="M 684.636719 316.796875 L 684.636719 338.769531 C 684.636719 343.324219 680.941406 347.019531 676.386719 347.019531 L 340.152344 347.019531 C 335.597656 347.019531 331.902344 343.324219 331.902344 338.769531 L 331.902344 316.796875 C 331.902344 312.242188 335.597656 308.546875 340.152344 308.546875 L 676.386719 308.546875 C 680.941406 308.546875 684.636719 312.242188 684.636719 316.796875 Z M 684.636719 316.796875 " clip-rule="nonzero"/></clipPath><clipPath id="3fa0a9f368"><path d="M 0.753906 0.398438 L 353.71875 0.398438 L 353.71875 39.019531 L 0.753906 39.019531 Z M 0.753906 0.398438 " clip-rule="nonzero"/></clipPath><clipPath id="1924bb391a"><path d="M 353.636719 8.796875 L 353.636719 30.769531 C 353.636719 35.324219 349.941406 39.019531 345.386719 39.019531 L 9.152344 39.019531 C 4.597656 39.019531 0.902344 35.324219 0.902344 30.769531 L 0.902344 8.796875 C 0.902344 4.242188 4.597656 0.546875 9.152344 0.546875 L 345.386719 0.546875 C 349.941406 0.546875 353.636719 4.242188 353.636719 8.796875 Z M 353.636719 8.796875 " clip-rule="nonzero"/></clipPath><clipPath id="1aca39fb49"><rect x="0" width="354" y="0" height="40"/></clipPath><clipPath id="9cd91934bc"><path d="M 331.898438 396.261719 L 413.808594 396.261719 L 413.808594 502.492188 L 331.898438 502.492188 Z M 331.898438 396.261719 " clip-rule="nonzero"/></clipPath><clipPath id="e35131c9dd"><path d="M 413.808594 409.011719 L 413.808594 489.460938 C 413.808594 492.84375 412.464844 496.085938 410.074219 498.476562 C 407.683594 500.867188 404.441406 502.210938 401.058594 502.210938 L 344.648438 502.210938 C 341.265625 502.210938 338.023438 500.867188 335.632812 498.476562 C 333.242188 496.085938 331.898438 492.84375 331.898438 489.460938 L 331.898438 409.011719 C 331.898438 405.628906 333.242188 402.386719 335.632812 399.996094 C 338.023438 397.605469 341.265625 396.261719 344.648438 396.261719 L 401.058594 396.261719 C 404.441406 396.261719 407.683594 397.605469 410.074219 399.996094 C 412.464844 402.386719 413.808594 405.628906 413.808594 409.011719 Z M 413.808594 409.011719 " clip-rule="nonzero"/></clipPath><clipPath id="c7397a8571"><path d="M 0.898438 0.261719 L 82.808594 0.261719 L 82.808594 106.320312 L 0.898438 106.320312 Z M 0.898438 0.261719 " clip-rule="nonzero"/></clipPath><clipPath id="27c7eb6306"><path d="M 82.808594 13.011719 L 82.808594 93.460938 C 82.808594 96.84375 81.464844 100.085938 79.074219 102.476562 C 76.683594 104.867188 73.441406 106.210938 70.058594 106.210938 L 13.648438 106.210938 C 10.265625 106.210938 7.023438 104.867188 4.632812 102.476562 C 2.242188 100.085938 0.898438 96.84375 0.898438 93.460938 L 0.898438 13.011719 C 0.898438 9.628906 2.242188 6.386719 4.632812 3.996094 C 7.023438 1.605469 10.265625 0.261719 13.648438 0.261719 L 70.058594 0.261719 C 73.441406 0.261719 76.683594 1.605469 79.074219 3.996094 C 81.464844 6.386719 82.808594 9.628906 82.808594 13.011719 Z M 82.808594 13.011719 " clip-rule="nonzero"/></clipPath><clipPath id="0f245540f0"><rect x="0" width="83" y="0" height="107"/></clipPath><clipPath id="ef4565a1fb"><path d="M 331 383 L 365 383 L 365 419 L 331 419 Z M 331 383 " clip-rule="nonzero"/></clipPath><clipPath id="a64c779483"><path d="M 315.417969 394.898438 L 348.152344 371.90625 L 364.734375 395.511719 L 332 418.503906 Z M 315.417969 394.898438 " clip-rule="nonzero"/></clipPath><clipPath id="2f24faa2be"><path d="M 331.769531 383.414062 L 364.695312 395.535156 L 332 418.503906 Z M 331.769531 383.414062 " clip-rule="nonzero"/></clipPath><clipPath id="0e1a433273"><path d="M 0.679688 0.28125 L 33.800781 0.28125 L 33.800781 35.558594 L 0.679688 35.558594 Z M 0.679688 0.28125 " clip-rule="nonzero"/></clipPath><clipPath id="1ab53d3a3d"><path d="M -15.582031 11.898438 L 17.152344 -11.09375 L 33.734375 12.511719 L 1 35.503906 Z M -15.582031 11.898438 " clip-rule="nonzero"/></clipPath><clipPath id="27cfe846ab"><path d="M 0.769531 0.414062 L 33.695312 12.535156 L 1 35.503906 Z M 0.769531 0.414062 " clip-rule="nonzero"/></clipPath><clipPath id="ca7698db61"><rect x="0" width="34" y="0" height="36"/></clipPath><clipPath id="a49148dc64"><path d="M 330 383 L 364 383 L 364 412 L 330 412 Z M 330 383 " clip-rule="nonzero"/></clipPath><clipPath id="25014fefdc"><path d="M 322.785156 397.414062 L 338.695312 369.226562 L 363.324219 383.128906 L 347.414062 411.316406 Z M 322.785156 397.414062 " clip-rule="nonzero"/></clipPath><clipPath id="ee1772c3ec"><path d="M 330.730469 383.34375 L 363.300781 383.171875 L 347.414062 411.316406 Z M 330.730469 383.34375 " clip-rule="nonzero"/></clipPath><clipPath id="e994e1eead"><path d="M 0.71875 0.0390625 L 33.359375 0.0390625 L 33.359375 28.359375 L 0.71875 28.359375 Z M 0.71875 0.0390625 " clip-rule="nonzero"/></clipPath><clipPath id="f6e6fd88da"><path d="M -7.214844 14.414062 L 8.695312 -13.773438 L 33.324219 0.128906 L 17.414062 28.316406 Z M -7.214844 14.414062 " clip-rule="nonzero"/></clipPath><clipPath id="618a852ac1"><path d="M 0.730469 0.34375 L 33.300781 0.171875 L 17.414062 28.316406 Z M 0.730469 0.34375 " clip-rule="nonzero"/></clipPath><clipPath id="66e79c64c5"><rect x="0" width="34" y="0" height="29"/></clipPath><clipPath id="b36cc73a15"><path d="M 331.902344 310.746094 L 374.492188 310.746094 L 374.492188 348.214844 L 331.902344 348.214844 Z M 331.902344 310.746094 " clip-rule="nonzero"/></clipPath><clipPath id="15e5232e3e"><path d="M 353.171875 310.746094 C 341.425781 310.746094 331.902344 319.132812 331.902344 329.480469 C 331.902344 339.824219 341.425781 348.214844 353.171875 348.214844 C 364.921875 348.214844 374.445312 339.824219 374.445312 329.480469 C 374.445312 319.132812 364.921875 310.746094 353.171875 310.746094 Z M 353.171875 310.746094 " clip-rule="nonzero"/></clipPath><clipPath id="15748e2b69"><path d="M 0.902344 0.746094 L 43.492188 0.746094 L 43.492188 38.214844 L 0.902344 38.214844 Z M 0.902344 0.746094 " clip-rule="nonzero"/></clipPath><clipPath id="ae3663152c"><path d="M 22.171875 0.746094 C 10.425781 0.746094 0.902344 9.132812 0.902344 19.480469 C 0.902344 29.824219 10.425781 38.214844 22.171875 38.214844 C 33.921875 38.214844 43.445312 29.824219 43.445312 19.480469 C 43.445312 9.132812 33.921875 0.746094 22.171875 0.746094 Z M 22.171875 0.746094 " clip-rule="nonzero"/></clipPath><clipPath id="3547b35f06"><rect x="0" width="44" y="0" height="39"/></clipPath><clipPath id="7053ceb47d"><path d="M 335 324 L 356 324 L 356 347 L 335 347 Z M 335 324 " clip-rule="nonzero"/></clipPath><clipPath id="98f150e912"><path d="M 346.152344 352.167969 L 326.234375 341.429688 L 335.617188 324.027344 L 355.535156 334.769531 Z M 346.152344 352.167969 " clip-rule="nonzero"/></clipPath><clipPath id="6482b90e52"><path d="M 336.207031 346.808594 L 335.648438 324.042969 L 355.535156 334.769531 Z M 336.207031 346.808594 " clip-rule="nonzero"/></clipPath><clipPath id="2f68f02452"><path d="M 0.519531 0 L 20.679688 0 L 20.679688 23 L 0.519531 23 Z M 0.519531 0 " clip-rule="nonzero"/></clipPath><clipPath id="867e538511"><path d="M 11.152344 28.167969 L -8.765625 17.429688 L 0.617188 0.0273438 L 20.535156 10.769531 Z M 11.152344 28.167969 " clip-rule="nonzero"/></clipPath><clipPath id="a6ea5ad0f6"><path d="M 1.207031 22.808594 L 0.648438 0.0429688 L 20.535156 10.769531 Z M 1.207031 22.808594 " clip-rule="nonzero"/></clipPath><clipPath id="048ef45d66"><rect x="0" width="21" y="0" height="23"/></clipPath><clipPath id="a5953bca16"><path d="M 331.902344 326.042969 L 359.710938 326.042969 L 359.710938 347.042969 L 331.902344 347.042969 Z M 331.902344 326.042969 " clip-rule="nonzero"/></clipPath><clipPath id="f4515c94e4"><path d="M 345.777344 326.042969 L 359.65625 347.042969 L 331.902344 347.042969 Z M 345.777344 326.042969 " clip-rule="nonzero"/></clipPath><clipPath id="2649cfeb2a"><path d="M 0.902344 0.0429688 L 28.710938 0.0429688 L 28.710938 21.042969 L 0.902344 21.042969 Z M 0.902344 0.0429688 " clip-rule="nonzero"/></clipPath><clipPath id="a108ebeeda"><path d="M 14.777344 0.0429688 L 28.65625 21.042969 L 0.902344 21.042969 Z M 14.777344 0.0429688 " clip-rule="nonzero"/></clipPath><clipPath id="6d60736876"><rect x="0" width="29" y="0" height="22"/></clipPath><clipPath id="57327bc5f6"><path d="M 664.902344 314.265625 L 684.378906 314.265625 L 684.378906 491.679688 L 664.902344 491.679688 Z M 664.902344 314.265625 " clip-rule="nonzero"/></clipPath><clipPath id="57641ac09c"><path d="M 674.640625 314.265625 C 680.019531 314.265625 684.378906 318.625 684.378906 324.003906 L 684.378906 481.933594 C 684.378906 487.3125 680.019531 491.671875 674.640625 491.671875 C 669.261719 491.671875 664.902344 487.3125 664.902344 481.933594 L 664.902344 324.003906 C 664.902344 318.625 669.261719 314.265625 674.640625 314.265625 Z M 674.640625 314.265625 " clip-rule="nonzero"/></clipPath><clipPath id="a659e05f48"><path d="M 0.902344 0.265625 L 20.378906 0.265625 L 20.378906 177.679688 L 0.902344 177.679688 Z M 0.902344 0.265625 " clip-rule="nonzero"/></clipPath><clipPath id="fee838f938"><path d="M 10.640625 0.265625 C 16.019531 0.265625 20.378906 4.625 20.378906 10.003906 L 20.378906 167.933594 C 20.378906 173.3125 16.019531 177.671875 10.640625 177.671875 C 5.261719 177.671875 0.902344 173.3125 0.902344 167.933594 L 0.902344 10.003906 C 0.902344 4.625 5.261719 0.265625 10.640625 0.265625 Z M 10.640625 0.265625 " clip-rule="nonzero"/></clipPath><clipPath id="82a2d03305"><rect x="0" width="21" y="0" height="178"/></clipPath><clipPath id="3e7a2ad31c"><path d="M 331.898438 324.210938 L 349.292969 324.210938 L 349.292969 348.261719 L 331.898438 348.261719 Z M 331.898438 324.210938 " clip-rule="nonzero"/></clipPath><clipPath id="49c137fd89"><path d="M 349.292969 336.210938 L 331.898438 348.214844 L 331.898438 324.210938 Z M 349.292969 336.210938 " clip-rule="nonzero"/></clipPath><clipPath id="048dc1830c"><path d="M 0.898438 0.210938 L 18.292969 0.210938 L 18.292969 24.238281 L 0.898438 24.238281 Z M 0.898438 0.210938 " clip-rule="nonzero"/></clipPath><clipPath id="5b7a022d52"><path d="M 18.292969 12.210938 L 0.898438 24.214844 L 0.898438 0.210938 Z M 18.292969 12.210938 " clip-rule="nonzero"/></clipPath><clipPath id="77e18620b4"><rect x="0" width="19" y="0" height="25"/></clipPath><clipPath id="693e1c9449"><path d="M 656.226562 489.984375 L 670.226562 489.984375 L 670.226562 502.214844 L 656.226562 502.214844 Z M 656.226562 489.984375 " clip-rule="nonzero"/></clipPath><clipPath id="b098e11d2d"><path d="M 663.214844 489.984375 L 670.207031 502.214844 L 656.226562 502.214844 Z M 663.214844 489.984375 " clip-rule="nonzero"/></clipPath><clipPath id="a5ed4ac5af"><path d="M 0.226562 0.984375 L 14.226562 0.984375 L 14.226562 13.214844 L 0.226562 13.214844 Z M 0.226562 0.984375 " clip-rule="nonzero"/></clipPath><clipPath id="e622740663"><path d="M 7.214844 0.984375 L 14.207031 13.214844 L 0.226562 13.214844 Z M 7.214844 0.984375 " clip-rule="nonzero"/></clipPath><clipPath id="6fee0bb3b5"><rect x="0" width="15" y="0" height="14"/></clipPath><clipPath id="31d2f3d42c"><path d="M 672.148438 474.796875 L 684.378906 474.796875 L 684.378906 491.808594 L 672.148438 491.808594 Z M 672.148438 474.796875 " clip-rule="nonzero"/></clipPath><clipPath id="973311ed0e"><path d="M 672.148438 483.320312 L 684.378906 474.832031 L 684.378906 491.808594 Z M 672.148438 483.320312 " clip-rule="nonzero"/></clipPath><clipPath id="7f7d75d48a"><path d="M 0.148438 0.796875 L 12.378906 0.796875 L 12.378906 17.808594 L 0.148438 17.808594 Z M 0.148438 0.796875 " clip-rule="nonzero"/></clipPath><clipPath id="d46500f7fa"><path d="M 0.148438 9.320312 L 12.378906 0.832031 L 12.378906 17.808594 Z M 0.148438 9.320312 " clip-rule="nonzero"/></clipPath><clipPath id="387d5a1e82"><rect x="0" width="13" y="0" height="18"/></clipPath><clipPath id="1eb6a0cd92"><path d="M 607.09375 459.113281 L 618.898438 459.113281 L 618.898438 502.226562 L 607.09375 502.226562 Z M 607.09375 459.113281 " clip-rule="nonzero"/></clipPath><clipPath id="eb43d25a3f"><path d="M 612.996094 459.113281 C 616.257812 459.113281 618.898438 461.757812 618.898438 465.015625 L 618.898438 496.316406 C 618.898438 499.574219 616.257812 502.214844 612.996094 502.214844 C 609.738281 502.214844 607.09375 499.574219 607.09375 496.316406 L 607.09375 465.015625 C 607.09375 461.757812 609.738281 459.113281 612.996094 459.113281 Z M 612.996094 459.113281 " clip-rule="nonzero"/></clipPath><clipPath id="d51b7afe0c"><path d="M 0.09375 0.113281 L 11.898438 0.113281 L 11.898438 43.226562 L 0.09375 43.226562 Z M 0.09375 0.113281 " clip-rule="nonzero"/></clipPath><clipPath id="cb82c55a8b"><path d="M 5.996094 0.113281 C 9.257812 0.113281 11.898438 2.757812 11.898438 6.015625 L 11.898438 37.316406 C 11.898438 40.574219 9.257812 43.214844 5.996094 43.214844 C 2.738281 43.214844 0.09375 40.574219 0.09375 37.316406 L 0.09375 6.015625 C 0.09375 2.757812 2.738281 0.113281 5.996094 0.113281 Z M 5.996094 0.113281 " clip-rule="nonzero"/></clipPath><clipPath id="84eb42e8cf"><rect x="0" width="12" y="0" height="44"/></clipPath><clipPath id="baa188e9de"><path d="M 579.476562 468.535156 L 582.703125 468.535156 L 582.703125 474.371094 L 579.476562 474.371094 Z M 579.476562 468.535156 " clip-rule="nonzero"/></clipPath><clipPath id="c3b9402b8f"><path d="M 582.703125 471.449219 L 579.476562 474.363281 L 579.476562 468.535156 Z M 582.703125 471.449219 " clip-rule="nonzero"/></clipPath><clipPath id="b222bfcd07"><path d="M 0.476562 0.535156 L 3.703125 0.535156 L 3.703125 6.371094 L 0.476562 6.371094 Z M 0.476562 0.535156 " clip-rule="nonzero"/></clipPath><clipPath id="6b16ad20cd"><path d="M 3.703125 3.449219 L 0.476562 6.363281 L 0.476562 0.535156 Z M 3.703125 3.449219 " clip-rule="nonzero"/></clipPath><clipPath id="9cb4466bfa"><rect x="0" width="4" y="0" height="7"/></clipPath><clipPath id="1cc0465376"><path d="M 579.476562 472.007812 L 582.703125 472.007812 L 582.703125 477.84375 L 579.476562 477.84375 Z M 579.476562 472.007812 " clip-rule="nonzero"/></clipPath><clipPath id="014a82550c"><path d="M 582.703125 474.921875 L 579.476562 477.835938 L 579.476562 472.007812 Z M 582.703125 474.921875 " clip-rule="nonzero"/></clipPath><clipPath id="4d4944b06f"><path d="M 0.476562 0.0078125 L 3.703125 0.0078125 L 3.703125 5.839844 L 0.476562 5.839844 Z M 0.476562 0.0078125 " clip-rule="nonzero"/></clipPath><clipPath id="52cc414b08"><path d="M 3.703125 2.921875 L 0.476562 5.835938 L 0.476562 0.0078125 Z M 3.703125 2.921875 " clip-rule="nonzero"/></clipPath><clipPath id="8706e0d25d"><rect x="0" width="4" y="0" height="6"/></clipPath><clipPath id="10c5444b1e"><path d="M 579.476562 474.839844 L 582.703125 474.839844 L 582.703125 480.671875 L 579.476562 480.671875 Z M 579.476562 474.839844 " clip-rule="nonzero"/></clipPath><clipPath id="3f4828efa9"><path d="M 582.703125 477.753906 L 579.476562 480.664062 L 579.476562 474.839844 Z M 582.703125 477.753906 " clip-rule="nonzero"/></clipPath><clipPath id="0490ee8675"><path d="M 0.476562 0.839844 L 3.703125 0.839844 L 3.703125 6.671875 L 0.476562 6.671875 Z M 0.476562 0.839844 " clip-rule="nonzero"/></clipPath><clipPath id="3ed219efb4"><path d="M 3.703125 3.753906 L 0.476562 6.664062 L 0.476562 0.839844 Z M 3.703125 3.753906 " clip-rule="nonzero"/></clipPath><clipPath id="37ced5a621"><rect x="0" width="4" y="0" height="7"/></clipPath><clipPath id="aa4108b9d5"><path d="M 580.058594 474.351562 L 583.285156 474.351562 L 583.285156 480.1875 L 580.058594 480.1875 Z M 580.058594 474.351562 " clip-rule="nonzero"/></clipPath><clipPath id="7d1cb223b9"><path d="M 580.058594 477.273438 L 583.285156 474.359375 L 583.285156 480.1875 Z M 580.058594 477.273438 " clip-rule="nonzero"/></clipPath><clipPath id="9874be2eb7"><path d="M 0.0585938 0.351562 L 3.285156 0.351562 L 3.285156 6.1875 L 0.0585938 6.1875 Z M 0.0585938 0.351562 " clip-rule="nonzero"/></clipPath><clipPath id="1f5998d3c7"><path d="M 0.0585938 3.273438 L 3.285156 0.359375 L 3.285156 6.1875 Z M 0.0585938 3.273438 " clip-rule="nonzero"/></clipPath><clipPath id="060c6c5d34"><rect x="0" width="4" y="0" height="7"/></clipPath><clipPath id="33501b3e6a"><path d="M 580.058594 470.878906 L 583.285156 470.878906 L 583.285156 476.714844 L 580.058594 476.714844 Z M 580.058594 470.878906 " clip-rule="nonzero"/></clipPath><clipPath id="9be78b7b89"><path d="M 580.058594 473.800781 L 583.285156 470.886719 L 583.285156 476.714844 Z M 580.058594 473.800781 " clip-rule="nonzero"/></clipPath><clipPath id="e2499f7ba9"><path d="M 0.0585938 0.878906 L 3.285156 0.878906 L 3.285156 6.714844 L 0.0585938 6.714844 Z M 0.0585938 0.878906 " clip-rule="nonzero"/></clipPath><clipPath id="e6a3bd9a6c"><path d="M 0.0585938 3.800781 L 3.285156 0.886719 L 3.285156 6.714844 Z M 0.0585938 3.800781 " clip-rule="nonzero"/></clipPath><clipPath id="350f932689"><rect x="0" width="4" y="0" height="7"/></clipPath><clipPath id="a7f647c05d"><path d="M 580.058594 468.527344 L 583.285156 468.527344 L 583.285156 474.359375 L 580.058594 474.359375 Z M 580.058594 468.527344 " clip-rule="nonzero"/></clipPath><clipPath id="5e033e33ac"><path d="M 580.058594 471.449219 L 583.285156 468.535156 L 583.285156 474.359375 Z M 580.058594 471.449219 " clip-rule="nonzero"/></clipPath><clipPath id="fa834c90b9"><path d="M 0.0585938 0.527344 L 3.285156 0.527344 L 3.285156 6.359375 L 0.0585938 6.359375 Z M 0.0585938 0.527344 " clip-rule="nonzero"/></clipPath><clipPath id="33d5da9394"><path d="M 0.0585938 3.449219 L 3.285156 0.535156 L 3.285156 6.359375 Z M 0.0585938 3.449219 " clip-rule="nonzero"/></clipPath><clipPath id="f30a98ddcd"><rect x="0" width="4" y="0" height="7"/></clipPath><clipPath id="2ae697f070"><path d="M 234.371094 482.203125 L 322.785156 482.203125 L 322.785156 502.214844 L 234.371094 502.214844 Z M 234.371094 482.203125 " clip-rule="nonzero"/></clipPath><clipPath id="1df59235dc"><path d="M 237.371094 482.203125 L 319.785156 482.203125 C 320.578125 482.203125 321.34375 482.519531 321.90625 483.082031 C 322.46875 483.644531 322.785156 484.410156 322.785156 485.203125 L 322.785156 499.214844 C 322.785156 500.011719 322.46875 500.773438 321.90625 501.335938 C 321.34375 501.902344 320.578125 502.214844 319.785156 502.214844 L 237.371094 502.214844 C 236.574219 502.214844 235.8125 501.902344 235.25 501.335938 C 234.6875 500.773438 234.371094 500.011719 234.371094 499.214844 L 234.371094 485.203125 C 234.371094 484.410156 234.6875 483.644531 235.25 483.082031 C 235.8125 482.519531 236.574219 482.203125 237.371094 482.203125 Z M 237.371094 482.203125 " clip-rule="nonzero"/></clipPath><clipPath id="d3624a6a8f"><path d="M 0.371094 0.203125 L 88.785156 0.203125 L 88.785156 20.214844 L 0.371094 20.214844 Z M 0.371094 0.203125 " clip-rule="nonzero"/></clipPath><clipPath id="77d9575251"><path d="M 3.371094 0.203125 L 85.785156 0.203125 C 86.578125 0.203125 87.34375 0.519531 87.90625 1.082031 C 88.46875 1.644531 88.785156 2.410156 88.785156 3.203125 L 88.785156 17.214844 C 88.785156 18.011719 88.46875 18.773438 87.90625 19.335938 C 87.34375 19.902344 86.578125 20.214844 85.785156 20.214844 L 3.371094 20.214844 C 2.574219 20.214844 1.8125 19.902344 1.25 19.335938 C 0.6875 18.773438 0.371094 18.011719 0.371094 17.214844 L 0.371094 3.203125 C 0.371094 2.410156 0.6875 1.644531 1.25 1.082031 C 1.8125 0.519531 2.574219 0.203125 3.371094 0.203125 Z M 3.371094 0.203125 " clip-rule="nonzero"/></clipPath><clipPath id="347226ceb6"><rect x="0" width="89" y="0" height="21"/></clipPath><clipPath id="9b52a8aa86"><path d="M 313.144531 488.085938 L 329.308594 488.085938 L 329.308594 502.207031 L 313.144531 502.207031 Z M 313.144531 488.085938 " clip-rule="nonzero"/></clipPath><clipPath id="3e9448daf2"><path d="M 321.605469 488.335938 L 329.230469 501.53125 C 329.304688 501.664062 329.304688 501.832031 329.230469 501.964844 C 329.152344 502.097656 329.007812 502.179688 328.855469 502.179688 L 313.609375 502.179688 C 313.453125 502.179688 313.3125 502.097656 313.234375 501.964844 C 313.15625 501.832031 313.15625 501.664062 313.234375 501.53125 L 320.855469 488.335938 C 320.933594 488.203125 321.078125 488.121094 321.230469 488.121094 C 321.386719 488.121094 321.527344 488.203125 321.605469 488.335938 Z M 321.605469 488.335938 " clip-rule="nonzero"/></clipPath><clipPath id="218efef10b"><path d="M 0.144531 0.0859375 L 16.308594 0.0859375 L 16.308594 14.207031 L 0.144531 14.207031 Z M 0.144531 0.0859375 " clip-rule="nonzero"/></clipPath><clipPath id="3ab4a00c74"><path d="M 8.605469 0.335938 L 16.230469 13.53125 C 16.304688 13.664062 16.304688 13.832031 16.230469 13.964844 C 16.152344 14.097656 16.007812 14.179688 15.855469 14.179688 L 0.609375 14.179688 C 0.453125 14.179688 0.3125 14.097656 0.234375 13.964844 C 0.15625 13.832031 0.15625 13.664062 0.234375 13.53125 L 7.855469 0.335938 C 7.933594 0.203125 8.078125 0.121094 8.230469 0.121094 C 8.386719 0.121094 8.527344 0.203125 8.605469 0.335938 Z M 8.605469 0.335938 " clip-rule="nonzero"/></clipPath><clipPath id="059065a7d7"><rect x="0" width="17" y="0" height="15"/></clipPath><clipPath id="ac48eecc09"><path d="M 181.207031 441.867188 L 320.984375 441.867188 L 320.984375 461.878906 L 181.207031 461.878906 Z M 181.207031 441.867188 " clip-rule="nonzero"/></clipPath><clipPath id="ce0e09a875"><path d="M 184.207031 441.867188 L 317.941406 441.867188 C 318.734375 441.867188 319.5 442.183594 320.0625 442.746094 C 320.625 443.308594 320.941406 444.070312 320.941406 444.867188 L 320.941406 458.878906 C 320.941406 459.675781 320.625 460.4375 320.0625 461 C 319.5 461.5625 318.734375 461.878906 317.941406 461.878906 L 184.207031 461.878906 C 183.414062 461.878906 182.648438 461.5625 182.085938 461 C 181.523438 460.4375 181.207031 459.675781 181.207031 458.878906 L 181.207031 444.867188 C 181.207031 444.070312 181.523438 443.308594 182.085938 442.746094 C 182.648438 442.183594 183.414062 441.867188 184.207031 441.867188 Z M 184.207031 441.867188 " clip-rule="nonzero"/></clipPath><clipPath id="2f248b1ebd"><path d="M 0.207031 0.867188 L 139.984375 0.867188 L 139.984375 20.878906 L 0.207031 20.878906 Z M 0.207031 0.867188 " clip-rule="nonzero"/></clipPath><clipPath id="40210fa7be"><path d="M 3.207031 0.867188 L 136.941406 0.867188 C 137.734375 0.867188 138.5 1.183594 139.0625 1.746094 C 139.625 2.308594 139.941406 3.070312 139.941406 3.867188 L 139.941406 17.878906 C 139.941406 18.675781 139.625 19.4375 139.0625 20 C 138.5 20.5625 137.734375 20.878906 136.941406 20.878906 L 3.207031 20.878906 C 2.414062 20.878906 1.648438 20.5625 1.085938 20 C 0.523438 19.4375 0.207031 18.675781 0.207031 17.878906 L 0.207031 3.867188 C 0.207031 3.070312 0.523438 2.308594 1.085938 1.746094 C 1.648438 1.183594 2.414062 0.867188 3.207031 0.867188 Z M 3.207031 0.867188 " clip-rule="nonzero"/></clipPath><clipPath id="c6d6a82697"><rect x="0" width="140" y="0" height="21"/></clipPath><clipPath id="84fe949dcc"><path d="M 270.242188 401.53125 L 320.976562 401.53125 L 320.976562 421.542969 L 270.242188 421.542969 Z M 270.242188 401.53125 " clip-rule="nonzero"/></clipPath><clipPath id="6306a8d6e6"><path d="M 273.242188 401.53125 L 317.941406 401.53125 C 318.734375 401.53125 319.5 401.847656 320.0625 402.410156 C 320.625 402.972656 320.941406 403.734375 320.941406 404.53125 L 320.941406 418.542969 C 320.941406 419.339844 320.625 420.101562 320.0625 420.664062 C 319.5 421.226562 318.734375 421.542969 317.941406 421.542969 L 273.242188 421.542969 C 272.445312 421.542969 271.683594 421.226562 271.121094 420.664062 C 270.558594 420.101562 270.242188 419.339844 270.242188 418.542969 L 270.242188 404.53125 C 270.242188 403.734375 270.558594 402.972656 271.121094 402.410156 C 271.683594 401.847656 272.445312 401.53125 273.242188 401.53125 Z M 273.242188 401.53125 " clip-rule="nonzero"/></clipPath><clipPath id="f54cca2c39"><path d="M 0.242188 0.53125 L 50.976562 0.53125 L 50.976562 20.542969 L 0.242188 20.542969 Z M 0.242188 0.53125 " clip-rule="nonzero"/></clipPath><clipPath id="3542f5f590"><path d="M 3.242188 0.53125 L 47.941406 0.53125 C 48.734375 0.53125 49.5 0.847656 50.0625 1.410156 C 50.625 1.972656 50.941406 2.734375 50.941406 3.53125 L 50.941406 17.542969 C 50.941406 18.339844 50.625 19.101562 50.0625 19.664062 C 49.5 20.226562 48.734375 20.542969 47.941406 20.542969 L 3.242188 20.542969 C 2.445312 20.542969 1.683594 20.226562 1.121094 19.664062 C 0.558594 19.101562 0.242188 18.339844 0.242188 17.542969 L 0.242188 3.53125 C 0.242188 2.734375 0.558594 1.972656 1.121094 1.410156 C 1.683594 0.847656 2.445312 0.53125 3.242188 0.53125 Z M 3.242188 0.53125 " clip-rule="nonzero"/></clipPath><clipPath id="2bca6c35f0"><rect x="0" width="51" y="0" height="21"/></clipPath><clipPath id="af732fab70"><path d="M 218.253906 401.53125 L 246.710938 401.53125 L 246.710938 421.542969 L 218.253906 421.542969 Z M 218.253906 401.53125 " clip-rule="nonzero"/></clipPath><clipPath id="563709935f"><path d="M 221.253906 401.53125 L 243.632812 401.53125 C 244.425781 401.53125 245.191406 401.847656 245.753906 402.410156 C 246.316406 402.972656 246.632812 403.734375 246.632812 404.53125 L 246.632812 418.542969 C 246.632812 419.339844 246.316406 420.101562 245.753906 420.664062 C 245.191406 421.226562 244.425781 421.542969 243.632812 421.542969 L 221.253906 421.542969 C 220.460938 421.542969 219.695312 421.226562 219.132812 420.664062 C 218.570312 420.101562 218.253906 419.339844 218.253906 418.542969 L 218.253906 404.53125 C 218.253906 403.734375 218.570312 402.972656 219.132812 402.410156 C 219.695312 401.847656 220.460938 401.53125 221.253906 401.53125 Z M 221.253906 401.53125 " clip-rule="nonzero"/></clipPath><clipPath id="bb21ef0656"><path d="M 0.253906 0.53125 L 28.710938 0.53125 L 28.710938 20.542969 L 0.253906 20.542969 Z M 0.253906 0.53125 " clip-rule="nonzero"/></clipPath><clipPath id="8c2e706aee"><path d="M 3.253906 0.53125 L 25.632812 0.53125 C 26.425781 0.53125 27.191406 0.847656 27.753906 1.410156 C 28.316406 1.972656 28.632812 2.734375 28.632812 3.53125 L 28.632812 17.542969 C 28.632812 18.339844 28.316406 19.101562 27.753906 19.664062 C 27.191406 20.226562 26.425781 20.542969 25.632812 20.542969 L 3.253906 20.542969 C 2.460938 20.542969 1.695312 20.226562 1.132812 19.664062 C 0.570312 19.101562 0.253906 18.339844 0.253906 17.542969 L 0.253906 3.53125 C 0.253906 2.734375 0.570312 1.972656 1.132812 1.410156 C 1.695312 0.847656 2.460938 0.53125 3.253906 0.53125 Z M 3.253906 0.53125 " clip-rule="nonzero"/></clipPath><clipPath id="2708a2e484"><rect x="0" width="29" y="0" height="21"/></clipPath><clipPath id="243e8b75e0"><path d="M 238.011719 356.554688 L 272.871094 356.554688 L 272.871094 364.480469 L 238.011719 364.480469 Z M 238.011719 356.554688 " clip-rule="nonzero"/></clipPath><clipPath id="78e05ee959"><path d="M 241.011719 356.554688 L 269.851562 356.554688 C 270.648438 356.554688 271.410156 356.871094 271.972656 357.433594 C 272.535156 357.996094 272.851562 358.761719 272.851562 359.554688 L 272.851562 361.480469 C 272.851562 362.277344 272.535156 363.039062 271.972656 363.601562 C 271.410156 364.164062 270.648438 364.480469 269.851562 364.480469 L 241.011719 364.480469 C 240.214844 364.480469 239.449219 364.164062 238.886719 363.601562 C 238.324219 363.039062 238.011719 362.277344 238.011719 361.480469 L 238.011719 359.554688 C 238.011719 358.761719 238.324219 357.996094 238.886719 357.433594 C 239.449219 356.871094 240.214844 356.554688 241.011719 356.554688 Z M 241.011719 356.554688 " clip-rule="nonzero"/></clipPath><clipPath id="7a1fabf514"><path d="M 0.0117188 0.554688 L 34.871094 0.554688 L 34.871094 8.480469 L 0.0117188 8.480469 Z M 0.0117188 0.554688 " clip-rule="nonzero"/></clipPath><clipPath id="e91a09e4cf"><path d="M 3.011719 0.554688 L 31.851562 0.554688 C 32.648438 0.554688 33.410156 0.871094 33.972656 1.433594 C 34.535156 1.996094 34.851562 2.761719 34.851562 3.554688 L 34.851562 5.480469 C 34.851562 6.277344 34.535156 7.039062 33.972656 7.601562 C 33.410156 8.164062 32.648438 8.480469 31.851562 8.480469 L 3.011719 8.480469 C 2.214844 8.480469 1.449219 8.164062 0.886719 7.601562 C 0.324219 7.039062 0.0117188 6.277344 0.0117188 5.480469 L 0.0117188 3.554688 C 0.0117188 2.761719 0.324219 1.996094 0.886719 1.433594 C 1.449219 0.871094 2.214844 0.554688 3.011719 0.554688 Z M 3.011719 0.554688 " clip-rule="nonzero"/></clipPath><clipPath id="9e46ff82e0"><rect x="0" width="35" y="0" height="9"/></clipPath><clipPath id="d4bbef5200"><path d="M 226.289062 307.785156 L 322.835938 307.785156 L 322.835938 327.796875 L 226.289062 327.796875 Z M 226.289062 307.785156 " clip-rule="nonzero"/></clipPath><clipPath id="27dd5092d4"><path d="M 229.289062 307.785156 L 319.785156 307.785156 C 320.578125 307.785156 321.34375 308.097656 321.90625 308.664062 C 322.46875 309.226562 322.785156 309.988281 322.785156 310.785156 L 322.785156 324.796875 C 322.785156 325.589844 322.46875 326.355469 321.90625 326.917969 C 321.34375 327.480469 320.578125 327.796875 319.785156 327.796875 L 229.289062 327.796875 C 228.496094 327.796875 227.730469 327.480469 227.167969 326.917969 C 226.605469 326.355469 226.289062 325.589844 226.289062 324.796875 L 226.289062 310.785156 C 226.289062 309.988281 226.605469 309.226562 227.167969 308.664062 C 227.730469 308.097656 228.496094 307.785156 229.289062 307.785156 Z M 229.289062 307.785156 " clip-rule="nonzero"/></clipPath><clipPath id="66c59d79d3"><path d="M 0.289062 0.785156 L 96.800781 0.785156 L 96.800781 20.796875 L 0.289062 20.796875 Z M 0.289062 0.785156 " clip-rule="nonzero"/></clipPath><clipPath id="6e959f49d7"><path d="M 3.289062 0.785156 L 93.785156 0.785156 C 94.578125 0.785156 95.34375 1.097656 95.90625 1.664062 C 96.46875 2.226562 96.785156 2.988281 96.785156 3.785156 L 96.785156 17.796875 C 96.785156 18.589844 96.46875 19.355469 95.90625 19.917969 C 95.34375 20.480469 94.578125 20.796875 93.785156 20.796875 L 3.289062 20.796875 C 2.496094 20.796875 1.730469 20.480469 1.167969 19.917969 C 0.605469 19.355469 0.289062 18.589844 0.289062 17.796875 L 0.289062 3.785156 C 0.289062 2.988281 0.605469 2.226562 1.167969 1.664062 C 1.730469 1.097656 2.496094 0.785156 3.289062 0.785156 Z M 3.289062 0.785156 " clip-rule="nonzero"/></clipPath><clipPath id="c6fdb502cf"><rect x="0" width="97" y="0" height="21"/></clipPath><clipPath id="f8b52586be"><path d="M 313.109375 307.78125 L 327.550781 307.78125 L 327.550781 320.851562 L 313.109375 320.851562 Z M 313.109375 307.78125 " clip-rule="nonzero"/></clipPath><clipPath id="515c67f4c2"><path d="M 319.96875 320.617188 L 313.21875 308.460938 C 313.140625 308.324219 313.144531 308.160156 313.222656 308.023438 C 313.300781 307.890625 313.445312 307.804688 313.601562 307.804688 L 327.0625 307.804688 C 327.21875 307.804688 327.363281 307.890625 327.441406 308.023438 C 327.523438 308.160156 327.523438 308.324219 327.449219 308.460938 L 320.695312 320.617188 C 320.625 320.75 320.484375 320.832031 320.332031 320.832031 C 320.183594 320.832031 320.042969 320.75 319.96875 320.617188 Z M 319.96875 320.617188 " clip-rule="nonzero"/></clipPath><clipPath id="6c00ab991c"><path d="M 0.109375 0.78125 L 14.550781 0.78125 L 14.550781 13.851562 L 0.109375 13.851562 Z M 0.109375 0.78125 " clip-rule="nonzero"/></clipPath><clipPath id="19a0172826"><path d="M 6.96875 13.617188 L 0.21875 1.460938 C 0.140625 1.324219 0.144531 1.160156 0.222656 1.023438 C 0.300781 0.890625 0.445312 0.804688 0.601562 0.804688 L 14.0625 0.804688 C 14.21875 0.804688 14.363281 0.890625 14.441406 1.023438 C 14.523438 1.160156 14.523438 1.324219 14.449219 1.460938 L 7.695312 13.617188 C 7.625 13.75 7.484375 13.832031 7.332031 13.832031 C 7.183594 13.832031 7.042969 13.75 6.96875 13.617188 Z M 6.96875 13.617188 " clip-rule="nonzero"/></clipPath><clipPath id="7f10f724c8"><rect x="0" width="15" y="0" height="14"/></clipPath><clipPath id="27c1686f24"><path d="M 332.664062 331.335938 L 395.945312 331.335938 L 395.945312 348.28125 L 332.664062 348.28125 Z M 332.664062 331.335938 " clip-rule="nonzero"/></clipPath><clipPath id="1dd2206ae7"><path d="M 364.28125 331.335938 L 395.894531 348.28125 L 332.664062 348.28125 Z M 364.28125 331.335938 " clip-rule="nonzero"/></clipPath><clipPath id="edf659467b"><path d="M 0.664062 0.335938 L 63.945312 0.335938 L 63.945312 17.28125 L 0.664062 17.28125 Z M 0.664062 0.335938 " clip-rule="nonzero"/></clipPath><clipPath id="51900e89be"><path d="M 32.28125 0.335938 L 63.894531 17.28125 L 0.664062 17.28125 Z M 32.28125 0.335938 " clip-rule="nonzero"/></clipPath><clipPath id="de16be23b9"><rect x="0" width="64" y="0" height="18"/></clipPath><clipPath id="a577f2d82f"><path d="M 287.941406 358.03125 L 660.457031 358.03125 L 660.457031 364.480469 L 287.941406 364.480469 Z M 287.941406 358.03125 " clip-rule="nonzero"/></clipPath><clipPath id="4adfb7fec7"><path d="M 290.941406 358.03125 L 657.433594 358.03125 C 658.230469 358.03125 658.992188 358.347656 659.554688 358.910156 C 660.117188 359.472656 660.433594 360.234375 660.433594 361.03125 L 660.433594 361.480469 C 660.433594 362.277344 660.117188 363.039062 659.554688 363.601562 C 658.992188 364.164062 658.230469 364.480469 657.433594 364.480469 L 290.941406 364.480469 C 290.144531 364.480469 289.382812 364.164062 288.820312 363.601562 C 288.257812 363.039062 287.941406 362.277344 287.941406 361.480469 L 287.941406 361.03125 C 287.941406 360.234375 288.257812 359.472656 288.820312 358.910156 C 289.382812 358.347656 290.144531 358.03125 290.941406 358.03125 Z M 290.941406 358.03125 " clip-rule="nonzero"/></clipPath><clipPath id="2feb5c8c3d"><path d="M 0.941406 0.03125 L 373.457031 0.03125 L 373.457031 6.480469 L 0.941406 6.480469 Z M 0.941406 0.03125 " clip-rule="nonzero"/></clipPath><clipPath id="51fd052b92"><path d="M 3.941406 0.03125 L 370.433594 0.03125 C 371.230469 0.03125 371.992188 0.347656 372.554688 0.910156 C 373.117188 1.472656 373.433594 2.234375 373.433594 3.03125 L 373.433594 3.480469 C 373.433594 4.277344 373.117188 5.039062 372.554688 5.601562 C 371.992188 6.164062 371.230469 6.480469 370.433594 6.480469 L 3.941406 6.480469 C 3.144531 6.480469 2.382812 6.164062 1.820312 5.601562 C 1.257812 5.039062 0.941406 4.277344 0.941406 3.480469 L 0.941406 3.03125 C 0.941406 2.234375 1.257812 1.472656 1.820312 0.910156 C 2.382812 0.347656 3.144531 0.03125 3.941406 0.03125 Z M 3.941406 0.03125 " clip-rule="nonzero"/></clipPath><clipPath id="316570a171"><rect x="0" width="374" y="0" height="7"/></clipPath><clipPath id="3051c1a6d9"><path d="M 339.242188 382.445312 L 684.390625 382.445312 L 684.390625 470.890625 L 339.242188 470.890625 Z M 339.242188 382.445312 " clip-rule="nonzero"/></clipPath><clipPath id="eb9a70dedd"><path d="M 351.992188 382.445312 L 671.628906 382.445312 C 675.007812 382.445312 678.253906 383.789062 680.644531 386.179688 C 683.035156 388.570312 684.378906 391.8125 684.378906 395.195312 L 684.378906 458.140625 C 684.378906 461.523438 683.035156 464.765625 680.644531 467.15625 C 678.253906 469.546875 675.007812 470.890625 671.628906 470.890625 L 351.992188 470.890625 C 348.609375 470.890625 345.367188 469.546875 342.976562 467.15625 C 340.585938 464.765625 339.242188 461.523438 339.242188 458.140625 L 339.242188 395.195312 C 339.242188 391.8125 340.585938 388.570312 342.976562 386.179688 C 345.367188 383.789062 348.609375 382.445312 351.992188 382.445312 Z M 351.992188 382.445312 " clip-rule="nonzero"/></clipPath><clipPath id="8c6e455f3d"><path d="M 0.242188 0.445312 L 345.390625 0.445312 L 345.390625 88.890625 L 0.242188 88.890625 Z M 0.242188 0.445312 " clip-rule="nonzero"/></clipPath><clipPath id="a10f8603ab"><path d="M 12.992188 0.445312 L 332.628906 0.445312 C 336.007812 0.445312 339.253906 1.789062 341.644531 4.179688 C 344.035156 6.570312 345.378906 9.8125 345.378906 13.195312 L 345.378906 76.140625 C 345.378906 79.523438 344.035156 82.765625 341.644531 85.15625 C 339.253906 87.546875 336.007812 88.890625 332.628906 88.890625 L 12.992188 88.890625 C 9.609375 88.890625 6.367188 87.546875 3.976562 85.15625 C 1.585938 82.765625 0.242188 79.523438 0.242188 76.140625 L 0.242188 13.195312 C 0.242188 9.8125 1.585938 6.570312 3.976562 4.179688 C 6.367188 1.789062 9.609375 0.445312 12.992188 0.445312 Z M 12.992188 0.445312 " clip-rule="nonzero"/></clipPath><clipPath id="d1bcc1e331"><rect x="0" width="346" y="0" height="89"/></clipPath><clipPath id="3619a3d111"><path d="M 340.058594 310.230469 L 678.398438 310.230469 L 678.398438 348.253906 L 340.058594 348.253906 Z M 340.058594 310.230469 " clip-rule="nonzero"/></clipPath><clipPath id="c2ab228172"><path d="M 678.261719 318.480469 L 678.261719 340.003906 C 678.261719 344.5625 674.570312 348.253906 670.011719 348.253906 L 348.308594 348.253906 C 343.75 348.253906 340.058594 344.5625 340.058594 340.003906 L 340.058594 318.480469 C 340.058594 313.925781 343.75 310.230469 348.308594 310.230469 L 670.011719 310.230469 C 674.570312 310.230469 678.261719 313.925781 678.261719 318.480469 Z M 678.261719 318.480469 " clip-rule="nonzero"/></clipPath><clipPath id="eb7bde500d"><path d="M 0.0585938 0.230469 L 338.398438 0.230469 L 338.398438 38.253906 L 0.0585938 38.253906 Z M 0.0585938 0.230469 " clip-rule="nonzero"/></clipPath><clipPath id="c6da445f85"><path d="M 338.261719 8.480469 L 338.261719 30.003906 C 338.261719 34.5625 334.570312 38.253906 330.011719 38.253906 L 8.308594 38.253906 C 3.75 38.253906 0.0585938 34.5625 0.0585938 30.003906 L 0.0585938 8.480469 C 0.0585938 3.925781 3.75 0.230469 8.308594 0.230469 L 330.011719 0.230469 C 334.570312 0.230469 338.261719 3.925781 338.261719 8.480469 Z M 338.261719 8.480469 " clip-rule="nonzero"/></clipPath><clipPath id="2256b6351a"><rect x="0" width="339" y="0" height="39"/></clipPath><clipPath id="dad8a529a0"><path d="M 486 464 L 498 464 L 498 479 L 486 479 Z M 486 464 " clip-rule="nonzero"/></clipPath><clipPath id="5e5b143958"><path d="M 484.246094 466.585938 L 496.582031 464.335938 L 498.839844 476.714844 L 486.503906 478.964844 Z M 484.246094 466.585938 " clip-rule="nonzero"/></clipPath><clipPath id="7304b727bc"><path d="M 486.503906 478.964844 C 485.914062 475.71875 486.648438 472.300781 488.527344 469.585938 C 490.40625 466.871094 493.339844 464.976562 496.589844 464.382812 L 497.738281 470.675781 C 496.144531 470.964844 494.707031 471.894531 493.789062 473.222656 C 492.867188 474.554688 492.507812 476.226562 492.796875 477.816406 Z M 486.503906 478.964844 " clip-rule="nonzero"/></clipPath><clipPath id="27efa9327d"><path d="M 0 0.160156 L 11.761719 0.160156 L 11.761719 15 L 0 15 Z M 0 0.160156 " clip-rule="nonzero"/></clipPath><clipPath id="e7f14a848d"><path d="M -1.753906 2.585938 L 10.582031 0.335938 L 12.839844 12.714844 L 0.503906 14.964844 Z M -1.753906 2.585938 " clip-rule="nonzero"/></clipPath><clipPath id="54cde61174"><path d="M 0.503906 14.964844 C -0.0859375 11.71875 0.648438 8.300781 2.527344 5.585938 C 4.40625 2.871094 7.339844 0.976562 10.589844 0.382812 L 11.738281 6.675781 C 10.144531 6.964844 8.707031 7.894531 7.789062 9.222656 C 6.867188 10.554688 6.507812 12.226562 6.796875 13.816406 Z M 0.503906 14.964844 " clip-rule="nonzero"/></clipPath><clipPath id="95cd94299d"><rect x="0" width="12" y="0" height="15"/></clipPath><clipPath id="d39b853393"><path d="M 487 465 L 497 465 L 497 484 L 487 484 Z M 487 465 " clip-rule="nonzero"/></clipPath><clipPath id="d160acc775"><path d="M 482.652344 475.476562 L 491.148438 465.734375 L 500.632812 474.003906 L 492.136719 483.75 Z M 482.652344 475.476562 " clip-rule="nonzero"/></clipPath><clipPath id="fcdb550980"><path d="M 492.136719 483.75 C 489.648438 481.578125 488.117188 478.421875 487.9375 475.078125 C 487.753906 471.734375 488.925781 468.355469 491.15625 465.796875 L 495.976562 470 C 494.886719 471.253906 494.3125 472.910156 494.398438 474.546875 C 494.488281 476.183594 495.238281 477.730469 496.457031 478.792969 Z M 492.136719 483.75 " clip-rule="nonzero"/></clipPath><clipPath id="7423c4f4ef"><path d="M 0.679688 0.601562 L 9.558594 0.601562 L 9.558594 18.839844 L 0.679688 18.839844 Z M 0.679688 0.601562 " clip-rule="nonzero"/></clipPath><clipPath id="093d26e6e8"><path d="M -4.347656 10.476562 L 4.148438 0.734375 L 13.632812 9.003906 L 5.136719 18.75 Z M -4.347656 10.476562 " clip-rule="nonzero"/></clipPath><clipPath id="de0540a0b4"><path d="M 5.136719 18.75 C 2.648438 16.578125 1.117188 13.421875 0.9375 10.078125 C 0.753906 6.734375 1.925781 3.355469 4.15625 0.796875 L 8.976562 5 C 7.886719 6.253906 7.3125 7.910156 7.398438 9.546875 C 7.488281 11.183594 8.238281 12.730469 9.457031 13.792969 Z M 5.136719 18.75 " clip-rule="nonzero"/></clipPath><clipPath id="8f1f5cb3af"><rect x="0" width="10" y="0" height="19"/></clipPath><clipPath id="37c4f835b1"><path d="M 485 471 L 498 471 L 498 485 L 485 485 Z M 485 471 " clip-rule="nonzero"/></clipPath><clipPath id="2f315cb6ef"><path d="M 485.152344 484.011719 L 485.507812 471.085938 L 498.089844 471.433594 L 497.734375 484.355469 Z M 485.152344 484.011719 " clip-rule="nonzero"/></clipPath><clipPath id="eae465a1e0"><path d="M 497.734375 484.355469 C 494.433594 484.265625 491.246094 482.804688 488.976562 480.339844 C 486.707031 477.878906 485.464844 474.523438 485.554688 471.132812 L 491.949219 471.304688 C 491.902344 472.96875 492.515625 474.609375 493.625 475.816406 C 494.738281 477.023438 496.300781 477.738281 497.914062 477.785156 Z M 497.734375 484.355469 " clip-rule="nonzero"/></clipPath><clipPath id="02e3eb76df"><path d="M 0.28125 0.121094 L 13 0.121094 L 13 13.558594 L 0.28125 13.558594 Z M 0.28125 0.121094 " clip-rule="nonzero"/></clipPath><clipPath id="222ae4f91d"><path d="M 0.152344 13.011719 L 0.507812 0.0859375 L 13.089844 0.433594 L 12.734375 13.355469 Z M 0.152344 13.011719 " clip-rule="nonzero"/></clipPath><clipPath id="0610cc7ff3"><path d="M 12.734375 13.355469 C 9.433594 13.265625 6.246094 11.804688 3.976562 9.339844 C 1.707031 6.878906 0.464844 3.523438 0.554688 0.132812 L 6.949219 0.304688 C 6.902344 1.96875 7.515625 3.609375 8.625 4.816406 C 9.738281 6.023438 11.300781 6.738281 12.914062 6.785156 Z M 12.734375 13.355469 " clip-rule="nonzero"/></clipPath><clipPath id="612d96a445"><rect x="0" width="13" y="0" height="14"/></clipPath><clipPath id="1ad0a44c7f"><path d="M 576.304688 473.707031 L 582.65625 473.707031 L 582.65625 481.945312 L 576.304688 481.945312 Z M 576.304688 473.707031 " clip-rule="nonzero"/></clipPath><clipPath id="21efb54200"><path d="M 582.65625 473.707031 C 582.65625 475.878906 581.980469 478 580.796875 479.53125 C 579.613281 481.066406 577.976562 481.945312 576.304688 481.945312 L 576.304688 477.742188 C 577.125 477.742188 577.925781 477.3125 578.503906 476.5625 C 579.082031 475.808594 579.414062 474.769531 579.414062 473.707031 Z M 582.65625 473.707031 " clip-rule="nonzero"/></clipPath><clipPath id="91ad5013ae"><path d="M 0.304688 0.707031 L 6.65625 0.707031 L 6.65625 8.945312 L 0.304688 8.945312 Z M 0.304688 0.707031 " clip-rule="nonzero"/></clipPath><clipPath id="f8ccca5b8c"><path d="M 6.65625 0.707031 C 6.65625 2.878906 5.980469 5 4.796875 6.53125 C 3.613281 8.066406 1.976562 8.945312 0.304688 8.945312 L 0.304688 4.742188 C 1.125 4.742188 1.925781 4.3125 2.503906 3.5625 C 3.082031 2.808594 3.414062 1.769531 3.414062 0.707031 Z M 6.65625 0.707031 " clip-rule="nonzero"/></clipPath><clipPath id="3f656e46a9"><rect x="0" width="7" y="0" height="9"/></clipPath><clipPath id="bd191151ee"><path d="M 575.453125 467.714844 L 583.238281 467.714844 L 583.238281 473.71875 L 575.453125 473.71875 Z M 575.453125 467.714844 " clip-rule="nonzero"/></clipPath><clipPath id="3a5a434d9a"><path d="M 575.457031 467.714844 C 577.503906 467.714844 579.511719 468.355469 580.960938 469.472656 C 582.410156 470.589844 583.238281 472.136719 583.238281 473.71875 L 579.269531 473.71875 C 579.269531 472.945312 578.863281 472.1875 578.152344 471.640625 C 577.441406 471.089844 576.460938 470.777344 575.457031 470.777344 Z M 575.457031 467.714844 " clip-rule="nonzero"/></clipPath><clipPath id="c19295f59f"><path d="M 0.453125 0.714844 L 8.238281 0.714844 L 8.238281 6.71875 L 0.453125 6.71875 Z M 0.453125 0.714844 " clip-rule="nonzero"/></clipPath><clipPath id="d1532c8f5f"><path d="M 0.457031 0.714844 C 2.503906 0.714844 4.511719 1.355469 5.960938 2.472656 C 7.410156 3.589844 8.238281 5.136719 8.238281 6.71875 L 4.269531 6.71875 C 4.269531 5.945312 3.863281 5.1875 3.152344 4.640625 C 2.441406 4.089844 1.460938 3.777344 0.457031 3.777344 Z M 0.457031 0.714844 " clip-rule="nonzero"/></clipPath><clipPath id="c5ecc6dc7f"><rect x="0" width="9" y="0" height="7"/></clipPath><clipPath id="8023731368"><path d="M 579.578125 465.800781 L 586.871094 465.800781 L 586.871094 475.261719 L 579.578125 475.261719 Z M 579.578125 465.800781 " clip-rule="nonzero"/></clipPath><clipPath id="a6d5ec70d7"><path d="M 579.578125 475.257812 C 579.578125 472.769531 580.355469 470.332031 581.714844 468.570312 C 583.070312 466.808594 584.949219 465.800781 586.871094 465.800781 L 586.871094 470.625 C 585.929688 470.625 585.011719 471.121094 584.34375 471.984375 C 583.679688 472.84375 583.296875 474.039062 583.296875 475.257812 Z M 579.578125 475.257812 " clip-rule="nonzero"/></clipPath><clipPath id="df45bb8d02"><path d="M 0.578125 0.800781 L 7.871094 0.800781 L 7.871094 10.261719 L 0.578125 10.261719 Z M 0.578125 0.800781 " clip-rule="nonzero"/></clipPath><clipPath id="a26b2271b3"><path d="M 0.578125 10.257812 C 0.578125 7.769531 1.355469 5.332031 2.714844 3.570312 C 4.070312 1.808594 5.949219 0.800781 7.871094 0.800781 L 7.871094 5.625 C 6.929688 5.625 6.011719 6.121094 5.34375 6.984375 C 4.679688 7.84375 4.296875 9.039062 4.296875 10.257812 Z M 0.578125 10.257812 " clip-rule="nonzero"/></clipPath><clipPath id="d5dcc3eaae"><rect x="0" width="8" y="0" height="11"/></clipPath><clipPath id="b25050d9d6"><path d="M 579.480469 475.164062 L 586.863281 475.164062 L 586.863281 480.859375 L 579.480469 480.859375 Z M 579.480469 475.164062 " clip-rule="nonzero"/></clipPath><clipPath id="e49d9257b4"><path d="M 586.859375 480.859375 C 584.917969 480.859375 583.015625 480.25 581.640625 479.191406 C 580.265625 478.128906 579.480469 476.664062 579.480469 475.164062 L 583.246094 475.164062 C 583.246094 475.898438 583.628906 476.617188 584.304688 477.136719 C 584.976562 477.65625 585.910156 477.953125 586.859375 477.953125 Z M 586.859375 480.859375 " clip-rule="nonzero"/></clipPath><clipPath id="772ff810ac"><path d="M 0.480469 0.164062 L 7.863281 0.164062 L 7.863281 5.859375 L 0.480469 5.859375 Z M 0.480469 0.164062 " clip-rule="nonzero"/></clipPath><clipPath id="e32d732441"><path d="M 7.859375 5.859375 C 5.917969 5.859375 4.015625 5.25 2.640625 4.191406 C 1.265625 3.128906 0.480469 1.664062 0.480469 0.164062 L 4.246094 0.164062 C 4.246094 0.898438 4.628906 1.617188 5.304688 2.136719 C 5.976562 2.65625 6.910156 2.953125 7.859375 2.953125 Z M 7.859375 5.859375 " clip-rule="nonzero"/></clipPath><clipPath id="8eb19b1a09"><rect x="0" width="8" y="0" height="6"/></clipPath><clipPath id="bbdacf7958"><path d="M 603 474 L 611 474 L 611 482 L 603 482 Z M 603 474 " clip-rule="nonzero"/></clipPath><clipPath id="119d8ac139"><path d="M 609.605469 481.929688 L 603.933594 481.445312 L 604.566406 474.089844 L 610.238281 474.574219 Z M 609.605469 481.929688 " clip-rule="nonzero"/></clipPath><clipPath id="2a702b8590"><path d="M 610.238281 474.578125 C 610.070312 476.511719 609.304688 478.355469 608.128906 479.632812 C 606.957031 480.914062 605.429688 481.574219 603.933594 481.445312 L 604.253906 477.691406 C 604.988281 477.753906 605.734375 477.433594 606.3125 476.804688 C 606.886719 476.179688 607.261719 475.277344 607.34375 474.328125 Z M 610.238281 474.578125 " clip-rule="nonzero"/></clipPath><clipPath id="877ca3948a"><path d="M 0.839844 0.238281 L 7.320312 0.238281 L 7.320312 7.679688 L 0.839844 7.679688 Z M 0.839844 0.238281 " clip-rule="nonzero"/></clipPath><clipPath id="ddf28286a2"><path d="M 6.605469 7.929688 L 0.933594 7.445312 L 1.566406 0.0898438 L 7.238281 0.574219 Z M 6.605469 7.929688 " clip-rule="nonzero"/></clipPath><clipPath id="b9cd43cfcd"><path d="M 7.238281 0.578125 C 7.070312 2.511719 6.304688 4.355469 5.128906 5.632812 C 3.957031 6.914062 2.429688 7.574219 0.933594 7.445312 L 1.253906 3.691406 C 1.988281 3.753906 2.734375 3.433594 3.3125 2.804688 C 3.886719 2.179688 4.261719 1.277344 4.34375 0.328125 Z M 7.238281 0.578125 " clip-rule="nonzero"/></clipPath><clipPath id="934a9d7f34"><rect x="0" width="8" y="0" height="8"/></clipPath><clipPath id="f971767edf"><path d="M 604 467 L 612 467 L 612 476 L 604 476 Z M 604 467 " clip-rule="nonzero"/></clipPath><clipPath id="26b2f3e56f"><path d="M 613.03125 469.300781 L 611.765625 475.621094 L 603.570312 473.984375 L 604.835938 467.664062 Z M 613.03125 469.300781 " clip-rule="nonzero"/></clipPath><clipPath id="0c398a9fbf"><path d="M 604.835938 467.664062 C 606.996094 468.09375 608.96875 469.191406 610.261719 470.671875 C 611.550781 472.15625 612.101562 473.957031 611.765625 475.621094 L 607.585938 474.785156 C 607.75 473.972656 607.480469 473.089844 606.847656 472.363281 C 606.214844 471.636719 605.25 471.097656 604.191406 470.886719 Z M 604.835938 467.664062 " clip-rule="nonzero"/></clipPath><clipPath id="2c619f46aa"><path d="M 0.078125 0.519531 L 8 0.519531 L 8 8.679688 L 0.078125 8.679688 Z M 0.078125 0.519531 " clip-rule="nonzero"/></clipPath><clipPath id="ec315d61ee"><path d="M 9.03125 2.300781 L 7.765625 8.621094 L -0.429688 6.984375 L 0.835938 0.664062 Z M 9.03125 2.300781 " clip-rule="nonzero"/></clipPath><clipPath id="4281f503da"><path d="M 0.835938 0.664062 C 2.996094 1.09375 4.96875 2.191406 6.261719 3.671875 C 7.550781 5.15625 8.101562 6.957031 7.765625 8.621094 L 3.585938 7.785156 C 3.75 6.972656 3.480469 6.089844 2.847656 5.363281 C 2.214844 4.636719 1.25 4.097656 0.191406 3.886719 Z M 0.835938 0.664062 " clip-rule="nonzero"/></clipPath><clipPath id="43d39542e7"><rect x="0" width="8" y="0" height="9"/></clipPath><clipPath id="bed33bf611"><path d="M 615 466 L 623 466 L 623 475 L 615 475 Z M 615 466 " clip-rule="nonzero"/></clipPath><clipPath id="ee134ca6f2"><path d="M 616.097656 465.957031 L 622.511719 466.585938 L 621.699219 474.902344 L 615.285156 474.277344 Z M 616.097656 465.957031 " clip-rule="nonzero"/></clipPath><clipPath id="00cb28c771"><path d="M 615.285156 474.273438 C 615.5 472.082031 616.390625 470.007812 617.738281 468.578125 C 619.085938 467.144531 620.824219 466.417969 622.511719 466.585938 L 622.097656 470.828125 C 621.269531 470.746094 620.417969 471.101562 619.757812 471.804688 C 619.097656 472.503906 618.660156 473.523438 618.554688 474.59375 Z M 615.285156 474.273438 " clip-rule="nonzero"/></clipPath><clipPath id="88989b00e4"><path d="M 0.121094 0.320312 L 7.558594 0.320312 L 7.558594 8.71875 L 0.121094 8.71875 Z M 0.121094 0.320312 " clip-rule="nonzero"/></clipPath><clipPath id="e732c243e9"><path d="M 1.097656 -0.0429688 L 7.511719 0.585938 L 6.699219 8.902344 L 0.285156 8.277344 Z M 1.097656 -0.0429688 " clip-rule="nonzero"/></clipPath><clipPath id="6dbc1d4a19"><path d="M 0.285156 8.273438 C 0.5 6.082031 1.390625 4.007812 2.738281 2.578125 C 4.085938 1.144531 5.824219 0.417969 7.511719 0.585938 L 7.097656 4.828125 C 6.269531 4.746094 5.417969 5.101562 4.757812 5.804688 C 4.097656 6.503906 3.660156 7.523438 3.554688 8.59375 Z M 0.285156 8.273438 " clip-rule="nonzero"/></clipPath><clipPath id="02190ab18c"><rect x="0" width="8" y="0" height="9"/></clipPath><clipPath id="22be5de2a8"><path d="M 614.714844 475.167969 L 623.074219 475.167969 L 623.074219 481.613281 L 614.714844 481.613281 Z M 614.714844 475.167969 " clip-rule="nonzero"/></clipPath><clipPath id="346f3d80f2"><path d="M 623.070312 481.613281 C 620.871094 481.613281 618.71875 480.925781 617.164062 479.726562 C 615.605469 478.527344 614.714844 476.867188 614.714844 475.167969 L 618.976562 475.167969 C 618.976562 476 619.414062 476.8125 620.175781 477.402344 C 620.941406 477.988281 621.992188 478.324219 623.070312 478.324219 Z M 623.070312 481.613281 " clip-rule="nonzero"/></clipPath><clipPath id="49fbb9882e"><path d="M 0.714844 0.167969 L 9.074219 0.167969 L 9.074219 6.613281 L 0.714844 6.613281 Z M 0.714844 0.167969 " clip-rule="nonzero"/></clipPath><clipPath id="7704e358fb"><path d="M 9.070312 6.613281 C 6.871094 6.613281 4.71875 5.925781 3.164062 4.726562 C 1.605469 3.527344 0.714844 1.867188 0.714844 0.167969 L 4.976562 0.167969 C 4.976562 1 5.414062 1.8125 6.175781 2.402344 C 6.941406 2.988281 7.992188 3.324219 9.070312 3.324219 Z M 9.070312 6.613281 " clip-rule="nonzero"/></clipPath><clipPath id="f97a422423"><rect x="0" width="10" y="0" height="7"/></clipPath><clipPath id="509ea818aa"><path d="M 661 474 L 669 474 L 669 483 L 661 483 Z M 661 474 " clip-rule="nonzero"/></clipPath><clipPath id="b004c57dad"><path d="M 667.675781 482.878906 L 661.261719 482.226562 L 662.105469 473.910156 L 668.519531 474.5625 Z M 667.675781 482.878906 " clip-rule="nonzero"/></clipPath><clipPath id="cd32e04c50"><path d="M 668.519531 474.5625 C 668.296875 476.753906 667.394531 478.824219 666.042969 480.25 C 664.695312 481.679688 662.953125 482.398438 661.261719 482.226562 L 661.691406 477.988281 C 662.519531 478.070312 663.375 477.71875 664.035156 477.019531 C 664.695312 476.320312 665.136719 475.304688 665.246094 474.230469 Z M 668.519531 474.5625 " clip-rule="nonzero"/></clipPath><clipPath id="3d2a0e3127"><path d="M 0.199219 0 L 7.640625 0 L 7.640625 8.398438 L 0.199219 8.398438 Z M 0.199219 0 " clip-rule="nonzero"/></clipPath><clipPath id="9acd5b17de"><path d="M 6.675781 8.878906 L 0.261719 8.226562 L 1.105469 -0.0898438 L 7.519531 0.5625 Z M 6.675781 8.878906 " clip-rule="nonzero"/></clipPath><clipPath id="d01088341f"><path d="M 7.519531 0.5625 C 7.296875 2.753906 6.394531 4.824219 5.042969 6.25 C 3.695312 7.679688 1.953125 8.398438 0.261719 8.226562 L 0.691406 3.988281 C 1.519531 4.070312 2.375 3.71875 3.035156 3.019531 C 3.695312 2.320312 4.136719 1.304688 4.246094 0.230469 Z M 7.519531 0.5625 " clip-rule="nonzero"/></clipPath><clipPath id="8ec4a9b8c3"><rect x="0" width="8" y="0" height="9"/></clipPath><clipPath id="4bccf6529f"><path d="M 660.714844 467.476562 L 669.074219 467.476562 L 669.074219 473.921875 L 660.714844 473.921875 Z M 660.714844 467.476562 " clip-rule="nonzero"/></clipPath><clipPath id="350a5fe1d6"><path d="M 660.71875 467.476562 C 662.917969 467.476562 665.070312 468.164062 666.625 469.363281 C 668.183594 470.5625 669.074219 472.222656 669.074219 473.921875 L 664.8125 473.921875 C 664.8125 473.089844 664.375 472.277344 663.613281 471.6875 C 662.851562 471.101562 661.796875 470.765625 660.71875 470.765625 Z M 660.71875 467.476562 " clip-rule="nonzero"/></clipPath><clipPath id="3347b39f18"><path d="M 0.714844 0.476562 L 9.074219 0.476562 L 9.074219 6.921875 L 0.714844 6.921875 Z M 0.714844 0.476562 " clip-rule="nonzero"/></clipPath><clipPath id="21bed12ca1"><path d="M 0.71875 0.476562 C 2.917969 0.476562 5.070312 1.164062 6.625 2.363281 C 8.183594 3.5625 9.074219 5.222656 9.074219 6.921875 L 4.8125 6.921875 C 4.8125 6.089844 4.375 5.277344 3.613281 4.6875 C 2.851562 4.101562 1.796875 3.765625 0.71875 3.765625 Z M 0.71875 0.476562 " clip-rule="nonzero"/></clipPath><clipPath id="fec42acda7"><rect x="0" width="10" y="0" height="7"/></clipPath><clipPath id="2a6ae9fb2f"><path d="M 660 344 L 670 344 L 670 352 L 660 352 Z M 660 344 " clip-rule="nonzero"/></clipPath><clipPath id="5a12f6de32"><path d="M 669.601562 345.371094 L 669.042969 351.792969 L 660.714844 351.066406 L 661.277344 344.644531 Z M 669.601562 345.371094 " clip-rule="nonzero"/></clipPath><clipPath id="7675ad08b5"><path d="M 661.277344 344.644531 C 663.46875 344.835938 665.554688 345.707031 667 347.039062 C 668.445312 348.371094 669.191406 350.101562 669.042969 351.792969 L 664.792969 351.421875 C 664.867188 350.59375 664.503906 349.746094 663.792969 349.09375 C 663.085938 348.441406 662.066406 348.015625 660.992188 347.921875 Z M 661.277344 344.644531 " clip-rule="nonzero"/></clipPath><clipPath id="2af161d527"><path d="M 0.960938 0.640625 L 9.359375 0.640625 L 9.359375 7.839844 L 0.960938 7.839844 Z M 0.960938 0.640625 " clip-rule="nonzero"/></clipPath><clipPath id="57510560da"><path d="M 9.601562 1.371094 L 9.042969 7.792969 L 0.714844 7.066406 L 1.277344 0.644531 Z M 9.601562 1.371094 " clip-rule="nonzero"/></clipPath><clipPath id="2e9c42cb6c"><path d="M 1.277344 0.644531 C 3.46875 0.835938 5.554688 1.707031 7 3.039062 C 8.445312 4.371094 9.191406 6.101562 9.042969 7.792969 L 4.792969 7.421875 C 4.867188 6.59375 4.503906 5.746094 3.792969 5.09375 C 3.085938 4.441406 2.066406 4.015625 0.992188 3.921875 Z M 1.277344 0.644531 " clip-rule="nonzero"/></clipPath><clipPath id="6409139e19"><rect x="0" width="10" y="0" height="8"/></clipPath><clipPath id="7d86567e9e"><path d="M 662.074219 378.261719 L 668.519531 378.261719 L 668.519531 386.621094 L 662.074219 386.621094 Z M 662.074219 378.261719 " clip-rule="nonzero"/></clipPath><clipPath id="55d7aa9f17"><path d="M 668.519531 378.265625 C 668.519531 380.464844 667.832031 382.617188 666.628906 384.175781 C 665.429688 385.730469 663.769531 386.621094 662.074219 386.621094 L 662.074219 382.359375 C 662.902344 382.359375 663.71875 381.921875 664.304688 381.160156 C 664.894531 380.398438 665.230469 379.34375 665.230469 378.265625 Z M 668.519531 378.265625 " clip-rule="nonzero"/></clipPath><clipPath id="d0f9be6355"><path d="M 0.0742188 0.261719 L 6.519531 0.261719 L 6.519531 8.621094 L 0.0742188 8.621094 Z M 0.0742188 0.261719 " clip-rule="nonzero"/></clipPath><clipPath id="875b90106a"><path d="M 6.519531 0.265625 C 6.519531 2.464844 5.832031 4.617188 4.628906 6.175781 C 3.429688 7.730469 1.769531 8.621094 0.0742188 8.621094 L 0.0742188 4.359375 C 0.902344 4.359375 1.71875 3.921875 2.304688 3.160156 C 2.894531 2.398438 3.230469 1.34375 3.230469 0.265625 Z M 6.519531 0.265625 " clip-rule="nonzero"/></clipPath><clipPath id="23c4c00a2f"><rect x="0" width="7" y="0" height="9"/></clipPath></defs><g clip-path="url(#c74f82d966)"><g clip-path="url(#b998c5008a)"><g transform="matrix(1, 0, 0, 1, 452, 477)"><g clip-path="url(#8d815d0651)"><g clip-path="url(#b3234dcb8b)"><g clip-path="url(#17146b8d19)"><path fill="#272838" d="M 232.375 0.839844 L 232.375 25.21875 L 0.1875 25.21875 L 0.1875 0.839844 Z M 232.375 0.839844 " fill-opacity="1" fill-rule="nonzero"/></g></g></g></g></g></g><g clip-path="url(#0a2a925b3e)"><g clip-path="url(#2080bb430b)"><g transform="matrix(1, 0, 0, 1, 355, 421)"><g clip-path="url(#dc6dc744bc)"><g clip-path="url(#af8aa90d6d)"><g clip-path="url(#6a6551b61a)"><path fill="#272838" d="M 0.542969 0.542969 L 139.199219 0.542969 L 139.199219 81.214844 L 0.542969 81.214844 Z M 0.542969 0.542969 " fill-opacity="1" fill-rule="nonzero"/></g></g></g></g></g></g><g clip-path="url(#aa990767d0)"><g clip-path="url(#ee8c31b21b)"><g transform="matrix(1, 0, 0, 1, 331, 308)"><g clip-path="url(#1aca39fb49)"><g clip-path="url(#3fa0a9f368)"><g clip-path="url(#1924bb391a)"><path fill="#272838" d="M 0.902344 0.546875 L 353.59375 0.546875 L 353.59375 39.019531 L 0.902344 39.019531 Z M 0.902344 0.546875 " fill-opacity="1" fill-rule="nonzero"/></g></g></g></g></g></g><g clip-path="url(#9cd91934bc)"><g clip-path="url(#e35131c9dd)"><g transform="matrix(1, 0, 0, 1, 331, 396)"><g clip-path="url(#0f245540f0)"><g clip-path="url(#c7397a8571)"><g clip-path="url(#27c7eb6306)"><path fill="#272838" d="M 82.808594 0.261719 L 82.808594 106.171875 L 0.898438 106.171875 L 0.898438 0.261719 Z M 82.808594 0.261719 " fill-opacity="1" fill-rule="nonzero"/></g></g></g></g></g></g><g clip-path="url(#ef4565a1fb)"><g clip-path="url(#a64c779483)"><g clip-path="url(#2f24faa2be)"><g transform="matrix(1, 0, 0, 1, 331, 383)"><g clip-path="url(#ca7698db61)"><g clip-path="url(#0e1a433273)"><g clip-path="url(#1ab53d3a3d)"><g clip-path="url(#27cfe846ab)"><path fill="#272838" d="M -15.582031 11.898438 L 17.152344 -11.09375 L 33.734375 12.511719 L 1 35.503906 Z M -15.582031 11.898438 " fill-opacity="1" fill-rule="nonzero"/></g></g></g></g></g></g></g></g><g clip-path="url(#a49148dc64)"><g clip-path="url(#25014fefdc)"><g clip-path="url(#ee1772c3ec)"><g transform="matrix(1, 0, 0, 1, 330, 383)"><g clip-path="url(#66e79c64c5)"><g clip-path="url(#e994e1eead)"><g clip-path="url(#f6e6fd88da)"><g clip-path="url(#618a852ac1)"><path fill="#272838" d="M -7.214844 14.414062 L 8.695312 -13.773438 L 33.324219 0.128906 L 17.414062 28.316406 Z M -7.214844 14.414062 " fill-opacity="1" fill-rule="nonzero"/></g></g></g></g></g></g></g></g><g clip-path="url(#b36cc73a15)"><g clip-path="url(#15e5232e3e)"><g transform="matrix(1, 0, 0, 1, 331, 310)"><g clip-path="url(#3547b35f06)"><g clip-path="url(#15748e2b69)"><g clip-path="url(#ae3663152c)"><path fill="#272838" d="M 0.902344 0.746094 L 43.492188 0.746094 L 43.492188 38.214844 L 0.902344 38.214844 Z M 0.902344 0.746094 " fill-opacity="1" fill-rule="nonzero"/></g></g></g></g></g></g><g clip-path="url(#7053ceb47d)"><g clip-path="url(#98f150e912)"><g clip-path="url(#6482b90e52)"><g transform="matrix(1, 0, 0, 1, 335, 324)"><g clip-path="url(#048ef45d66)"><g clip-path="url(#2f68f02452)"><g clip-path="url(#867e538511)"><g clip-path="url(#a6ea5ad0f6)"><path fill="#272838" d="M 11.152344 28.167969 L -8.765625 17.429688 L 0.617188 0.0273438 L 20.535156 10.769531 Z M 11.152344 28.167969 " fill-opacity="1" fill-rule="nonzero"/></g></g></g></g></g></g></g></g><g clip-path="url(#a5953bca16)"><g clip-path="url(#f4515c94e4)"><g transform="matrix(1, 0, 0, 1, 331, 326)"><g clip-path="url(#6d60736876)"><g clip-path="url(#2649cfeb2a)"><g clip-path="url(#a108ebeeda)"><path fill="#272838" d="M 0.902344 0.0429688 L 28.628906 0.0429688 L 28.628906 21.042969 L 0.902344 21.042969 Z M 0.902344 0.0429688 " fill-opacity="1" fill-rule="nonzero"/></g></g></g></g></g></g><g clip-path="url(#57327bc5f6)"><g clip-path="url(#57641ac09c)"><g transform="matrix(1, 0, 0, 1, 664, 314)"><g clip-path="url(#82a2d03305)"><g clip-path="url(#a659e05f48)"><g clip-path="url(#fee838f938)"><path fill="#272838" d="M 0.902344 0.265625 L 20.378906 0.265625 L 20.378906 177.679688 L 0.902344 177.679688 Z M 0.902344 0.265625 " fill-opacity="1" fill-rule="nonzero"/></g></g></g></g></g></g><g clip-path="url(#3e7a2ad31c)"><g clip-path="url(#49c137fd89)"><g transform="matrix(1, 0, 0, 1, 331, 324)"><g clip-path="url(#77e18620b4)"><g clip-path="url(#048dc1830c)"><g clip-path="url(#5b7a022d52)"><path fill="#272838" d="M 18.292969 0.210938 L 18.292969 24.191406 L 0.898438 24.191406 L 0.898438 0.210938 Z M 18.292969 0.210938 " fill-opacity="1" fill-rule="nonzero"/></g></g></g></g></g></g><g clip-path="url(#693e1c9449)"><g clip-path="url(#b098e11d2d)"><g transform="matrix(1, 0, 0, 1, 656, 489)"><g clip-path="url(#6fee0bb3b5)"><g clip-path="url(#a5ed4ac5af)"><g clip-path="url(#e622740663)"><path fill="#272838" d="M 0.226562 0.984375 L 14.226562 0.984375 L 14.226562 13.214844 L 0.226562 13.214844 Z M 0.226562 0.984375 " fill-opacity="1" fill-rule="nonzero"/></g></g></g></g></g></g><g clip-path="url(#31d2f3d42c)"><g clip-path="url(#973311ed0e)"><g transform="matrix(1, 0, 0, 1, 672, 474)"><g clip-path="url(#387d5a1e82)"><g clip-path="url(#7f7d75d48a)"><g clip-path="url(#d46500f7fa)"><path fill="#272838" d="M 0.148438 17.808594 L 0.148438 0.847656 L 12.378906 0.847656 L 12.378906 17.808594 Z M 0.148438 17.808594 " fill-opacity="1" fill-rule="nonzero"/></g></g></g></g></g></g><g clip-path="url(#1eb6a0cd92)"><g clip-path="url(#eb43d25a3f)"><g transform="matrix(1, 0, 0, 1, 607, 459)"><g clip-path="url(#84eb42e8cf)"><g clip-path="url(#d51b7afe0c)"><g clip-path="url(#cb82c55a8b)"><path fill="#272838" d="M 0.09375 0.113281 L 11.898438 0.113281 L 11.898438 43.226562 L 0.09375 43.226562 Z M 0.09375 0.113281 " fill-opacity="1" fill-rule="nonzero"/></g></g></g></g></g></g><g clip-path="url(#baa188e9de)"><g clip-path="url(#c3b9402b8f)"><g transform="matrix(1, 0, 0, 1, 579, 468)"><g clip-path="url(#9cb4466bfa)"><g clip-path="url(#b222bfcd07)"><g clip-path="url(#6b16ad20cd)"><path fill="#272838" d="M 3.703125 0.535156 L 3.703125 6.359375 L 0.476562 6.359375 L 0.476562 0.535156 Z M 3.703125 0.535156 " fill-opacity="1" fill-rule="nonzero"/></g></g></g></g></g></g><g clip-path="url(#1cc0465376)"><g clip-path="url(#014a82550c)"><g transform="matrix(1, 0, 0, 1, 579, 472)"><g clip-path="url(#8706e0d25d)"><g clip-path="url(#4d4944b06f)"><g clip-path="url(#52cc414b08)"><path fill="#272838" d="M 3.703125 0.0078125 L 3.703125 5.832031 L 0.476562 5.832031 L 0.476562 0.0078125 Z M 3.703125 0.0078125 " fill-opacity="1" fill-rule="nonzero"/></g></g></g></g></g></g><g clip-path="url(#10c5444b1e)"><g clip-path="url(#3f4828efa9)"><g transform="matrix(1, 0, 0, 1, 579, 474)"><g clip-path="url(#37ced5a621)"><g clip-path="url(#0490ee8675)"><g clip-path="url(#3ed219efb4)"><path fill="#272838" d="M 3.703125 0.839844 L 3.703125 6.660156 L 0.476562 6.660156 L 0.476562 0.839844 Z M 3.703125 0.839844 " fill-opacity="1" fill-rule="nonzero"/></g></g></g></g></g></g><g clip-path="url(#aa4108b9d5)"><g clip-path="url(#7d1cb223b9)"><g transform="matrix(1, 0, 0, 1, 580, 474)"><g clip-path="url(#060c6c5d34)"><g clip-path="url(#9874be2eb7)"><g clip-path="url(#1f5998d3c7)"><path fill="#272838" d="M 0.0585938 6.1875 L 0.0585938 0.363281 L 3.285156 0.363281 L 3.285156 6.1875 Z M 0.0585938 6.1875 " fill-opacity="1" fill-rule="nonzero"/></g></g></g></g></g></g><g clip-path="url(#33501b3e6a)"><g clip-path="url(#9be78b7b89)"><g transform="matrix(1, 0, 0, 1, 580, 470)"><g clip-path="url(#350f932689)"><g clip-path="url(#e2499f7ba9)"><g clip-path="url(#e6a3bd9a6c)"><path fill="#272838" d="M 0.0585938 6.714844 L 0.0585938 0.894531 L 3.285156 0.894531 L 3.285156 6.714844 Z M 0.0585938 6.714844 " fill-opacity="1" fill-rule="nonzero"/></g></g></g></g></g></g><g clip-path="url(#a7f647c05d)"><g clip-path="url(#5e033e33ac)"><g transform="matrix(1, 0, 0, 1, 580, 468)"><g clip-path="url(#f30a98ddcd)"><g clip-path="url(#fa834c90b9)"><g clip-path="url(#33d5da9394)"><path fill="#272838" d="M 0.0585938 6.359375 L 0.0585938 0.539062 L 3.285156 0.539062 L 3.285156 6.359375 Z M 0.0585938 6.359375 " fill-opacity="1" fill-rule="nonzero"/></g></g></g></g></g></g><g clip-path="url(#2ae697f070)"><g clip-path="url(#1df59235dc)"><g transform="matrix(1, 0, 0, 1, 234, 482)"><g clip-path="url(#347226ceb6)"><g clip-path="url(#d3624a6a8f)"><g clip-path="url(#77d9575251)"><path fill="#272838" d="M 0.371094 0.203125 L 88.785156 0.203125 L 88.785156 20.214844 L 0.371094 20.214844 Z M 0.371094 0.203125 " fill-opacity="1" fill-rule="nonzero"/></g></g></g></g></g></g><g clip-path="url(#9b52a8aa86)"><g clip-path="url(#3e9448daf2)"><g transform="matrix(1, 0, 0, 1, 313, 488)"><g clip-path="url(#059065a7d7)"><g clip-path="url(#218efef10b)"><g clip-path="url(#3ab4a00c74)"><path fill="#272838" d="M -0.140625 -0.3125 L 16.589844 -0.3125 L 16.589844 14.207031 L -0.140625 14.207031 Z M -0.140625 -0.3125 " fill-opacity="1" fill-rule="nonzero"/></g></g></g></g></g></g><g clip-path="url(#ac48eecc09)"><g clip-path="url(#ce0e09a875)"><g transform="matrix(1, 0, 0, 1, 181, 441)"><g clip-path="url(#c6d6a82697)"><g clip-path="url(#2f248b1ebd)"><g clip-path="url(#40210fa7be)"><path fill="#272838" d="M 0.207031 0.867188 L 139.90625 0.867188 L 139.90625 20.878906 L 0.207031 20.878906 Z M 0.207031 0.867188 " fill-opacity="1" fill-rule="nonzero"/></g></g></g></g></g></g><g clip-path="url(#84fe949dcc)"><g clip-path="url(#6306a8d6e6)"><g transform="matrix(1, 0, 0, 1, 270, 401)"><g clip-path="url(#2bca6c35f0)"><g clip-path="url(#f54cca2c39)"><g clip-path="url(#3542f5f590)"><path fill="#272838" d="M 0.242188 0.53125 L 50.976562 0.53125 L 50.976562 20.542969 L 0.242188 20.542969 Z M 0.242188 0.53125 " fill-opacity="1" fill-rule="nonzero"/></g></g></g></g></g></g><g clip-path="url(#af732fab70)"><g clip-path="url(#563709935f)"><g transform="matrix(1, 0, 0, 1, 218, 401)"><g clip-path="url(#2708a2e484)"><g clip-path="url(#bb21ef0656)"><g clip-path="url(#8c2e706aee)"><path fill="#272838" d="M 0.253906 0.53125 L 28.632812 0.53125 L 28.632812 20.542969 L 0.253906 20.542969 Z M 0.253906 0.53125 " fill-opacity="1" fill-rule="nonzero"/></g></g></g></g></g></g><g clip-path="url(#243e8b75e0)"><g clip-path="url(#78e05ee959)"><g transform="matrix(1, 0, 0, 1, 238, 356)"><g clip-path="url(#9e46ff82e0)"><g clip-path="url(#7a1fabf514)"><g clip-path="url(#e91a09e4cf)"><path fill="#272838" d="M 0.0117188 0.554688 L 34.839844 0.554688 L 34.839844 8.480469 L 0.0117188 8.480469 Z M 0.0117188 0.554688 " fill-opacity="1" fill-rule="nonzero"/></g></g></g></g></g></g><g clip-path="url(#d4bbef5200)"><g clip-path="url(#27dd5092d4)"><g transform="matrix(1, 0, 0, 1, 226, 307)"><g clip-path="url(#c6fdb502cf)"><g clip-path="url(#66c59d79d3)"><g clip-path="url(#6e959f49d7)"><path fill="#272838" d="M 0.289062 0.785156 L 96.757812 0.785156 L 96.757812 20.796875 L 0.289062 20.796875 Z M 0.289062 0.785156 " fill-opacity="1" fill-rule="nonzero"/></g></g></g></g></g></g><g clip-path="url(#f8b52586be)"><g clip-path="url(#515c67f4c2)"><g transform="matrix(1, 0, 0, 1, 313, 307)"><g clip-path="url(#7f10f724c8)"><g clip-path="url(#6c00ab991c)"><g clip-path="url(#19a0172826)"><path fill="#272838" d="M 14.8125 14.273438 L -0.152344 14.273438 L -0.152344 0.78125 L 14.8125 0.78125 Z M 14.8125 14.273438 " fill-opacity="1" fill-rule="nonzero"/></g></g></g></g></g></g><g clip-path="url(#27c1686f24)"><g clip-path="url(#1dd2206ae7)"><g transform="matrix(1, 0, 0, 1, 332, 331)"><g clip-path="url(#de16be23b9)"><g clip-path="url(#edf659467b)"><g clip-path="url(#51900e89be)"><path fill="#272838" d="M 0.664062 0.335938 L 63.878906 0.335938 L 63.878906 17.28125 L 0.664062 17.28125 Z M 0.664062 0.335938 " fill-opacity="1" fill-rule="nonzero"/></g></g></g></g></g></g><path stroke-linecap="butt" transform="matrix(0.75, 0, 0, 0.75, 139.75983, 346.818459)" fill="none" stroke-linejoin="miter" d="M 0.00251824 1.002472 L 262.002531 1.002472 " stroke="#272838" stroke-width="2" stroke-opacity="1" stroke-miterlimit="4"/><path stroke-linecap="butt" transform="matrix(0.75, -0.0000736952, 0.0000736952, 0.75, 139.604322, 382.463233)" fill="none" stroke-linejoin="miter" d="M 0.00143043 1.002148 L 293.402487 0.999728 " stroke="#272838" stroke-width="2" stroke-opacity="1" stroke-miterlimit="4"/><path stroke-linecap="butt" transform="matrix(0, -0.75, 0.75, 0, 127.36756, 371.930977)" fill="none" stroke-linejoin="miter" d="M 0.00171972 0.999503 L 18.538179 0.999503 " stroke="#272838" stroke-width="2" stroke-opacity="1" stroke-miterlimit="4"/><path stroke-linecap="butt" transform="matrix(-0.538594, -0.521935, 0.521935, -0.538594, 137.518972, 386.152765)" fill="none" stroke-linejoin="miter" d="M 0.585869 4.901553 C 7.787404 -0.30033 14.991902 -0.29766 22.195852 4.898458 " stroke="#272838" stroke-width="2" stroke-opacity="1" stroke-miterlimit="4"/><path stroke-linecap="butt" transform="matrix(0.55781, -0.501346, 0.501346, 0.55781, 125.332497, 355.593869)" fill="none" stroke-linejoin="miter" d="M 0.600305 4.902094 C 7.551622 -0.299862 14.511103 -0.298376 21.463648 4.899982 " stroke="#272838" stroke-width="2" stroke-opacity="1" stroke-miterlimit="4"/><g clip-path="url(#a577f2d82f)"><g clip-path="url(#4adfb7fec7)"><g transform="matrix(1, 0, 0, 1, 287, 358)"><g clip-path="url(#316570a171)"><g clip-path="url(#2feb5c8c3d)"><g clip-path="url(#51fd052b92)"><path fill="#272838" d="M 0.941406 0.03125 L 373.429688 0.03125 L 373.429688 6.480469 L 0.941406 6.480469 Z M 0.941406 0.03125 " fill-opacity="1" fill-rule="nonzero"/></g></g></g></g></g></g><g clip-path="url(#3051c1a6d9)"><g clip-path="url(#eb9a70dedd)"><g transform="matrix(1, 0, 0, 1, 339, 382)"><g clip-path="url(#d1bcc1e331)"><g clip-path="url(#8c6e455f3d)"><g clip-path="url(#a10f8603ab)"><path fill="#272838" d="M 0.242188 0.445312 L 345.390625 0.445312 L 345.390625 88.890625 L 0.242188 88.890625 Z M 0.242188 0.445312 " fill-opacity="1" fill-rule="nonzero"/></g></g></g></g></g></g><g clip-path="url(#3619a3d111)"><g clip-path="url(#c2ab228172)"><g transform="matrix(1, 0, 0, 1, 340, 310)"><g clip-path="url(#2256b6351a)"><g clip-path="url(#eb7bde500d)"><g clip-path="url(#c6da445f85)"><path fill="#272838" d="M 0.0585938 0.230469 L 338.25 0.230469 L 338.25 38.253906 L 0.0585938 38.253906 Z M 0.0585938 0.230469 " fill-opacity="1" fill-rule="nonzero"/></g></g></g></g></g></g><g clip-path="url(#dad8a529a0)"><g clip-path="url(#5e5b143958)"><g clip-path="url(#7304b727bc)"><g transform="matrix(1, 0, 0, 1, 486, 464)"><g clip-path="url(#95cd94299d)"><g clip-path="url(#27efa9327d)"><g clip-path="url(#e7f14a848d)"><g clip-path="url(#54cde61174)"><path fill="#272838" d="M -1.746094 2.632812 L 10.589844 0.382812 L 12.839844 12.714844 L 0.503906 14.964844 Z M -1.746094 2.632812 " fill-opacity="1" fill-rule="nonzero"/></g></g></g></g></g></g></g></g><g clip-path="url(#d39b853393)"><g clip-path="url(#d160acc775)"><g clip-path="url(#fcdb550980)"><g transform="matrix(1, 0, 0, 1, 487, 465)"><g clip-path="url(#8f1f5cb3af)"><g clip-path="url(#7423c4f4ef)"><g clip-path="url(#093d26e6e8)"><g clip-path="url(#de0540a0b4)"><path fill="#272838" d="M -4.3125 10.507812 L 4.152344 0.800781 L 13.601562 9.042969 L 5.136719 18.75 Z M -4.3125 10.507812 " fill-opacity="1" fill-rule="nonzero"/></g></g></g></g></g></g></g></g><g clip-path="url(#37c4f835b1)"><g clip-path="url(#2f315cb6ef)"><g clip-path="url(#eae465a1e0)"><g transform="matrix(1, 0, 0, 1, 485, 471)"><g clip-path="url(#612d96a445)"><g clip-path="url(#02e3eb76df)"><g clip-path="url(#222ae4f91d)"><g clip-path="url(#0610cc7ff3)"><path fill="#272838" d="M 0.203125 13.011719 L 0.554688 0.136719 L 13.089844 0.480469 L 12.734375 13.355469 Z M 0.203125 13.011719 " fill-opacity="1" fill-rule="nonzero"/></g></g></g></g></g></g></g></g><g clip-path="url(#1ad0a44c7f)"><g clip-path="url(#21efb54200)"><g transform="matrix(1, 0, 0, 1, 576, 473)"><g clip-path="url(#3f656e46a9)"><g clip-path="url(#91ad5013ae)"><g clip-path="url(#f8ccca5b8c)"><path fill="#272838" d="M 6.65625 8.945312 L 0.304688 8.945312 L 0.304688 0.707031 L 6.65625 0.707031 Z M 6.65625 8.945312 " fill-opacity="1" fill-rule="nonzero"/></g></g></g></g></g></g><g clip-path="url(#bd191151ee)"><g clip-path="url(#3a5a434d9a)"><g transform="matrix(1, 0, 0, 1, 575, 467)"><g clip-path="url(#c5ecc6dc7f)"><g clip-path="url(#c19295f59f)"><g clip-path="url(#d1532c8f5f)"><path fill="#272838" d="M 8.238281 0.714844 L 8.238281 6.71875 L 0.453125 6.71875 L 0.453125 0.714844 Z M 8.238281 0.714844 " fill-opacity="1" fill-rule="nonzero"/></g></g></g></g></g></g><g clip-path="url(#8023731368)"><g clip-path="url(#a6d5ec70d7)"><g transform="matrix(1, 0, 0, 1, 579, 465)"><g clip-path="url(#d5dcc3eaae)"><g clip-path="url(#df45bb8d02)"><g clip-path="url(#a26b2271b3)"><path fill="#272838" d="M 0.578125 0.800781 L 7.871094 0.800781 L 7.871094 10.261719 L 0.578125 10.261719 Z M 0.578125 0.800781 " fill-opacity="1" fill-rule="nonzero"/></g></g></g></g></g></g><g clip-path="url(#b25050d9d6)"><g clip-path="url(#e49d9257b4)"><g transform="matrix(1, 0, 0, 1, 579, 475)"><g clip-path="url(#8eb19b1a09)"><g clip-path="url(#772ff810ac)"><g clip-path="url(#e32d732441)"><path fill="#272838" d="M 0.480469 5.859375 L 0.480469 0.164062 L 7.863281 0.164062 L 7.863281 5.859375 Z M 0.480469 5.859375 " fill-opacity="1" fill-rule="nonzero"/></g></g></g></g></g></g><g clip-path="url(#bbdacf7958)"><g clip-path="url(#119d8ac139)"><g clip-path="url(#2a702b8590)"><g transform="matrix(1, 0, 0, 1, 603, 474)"><g clip-path="url(#934a9d7f34)"><g clip-path="url(#877ca3948a)"><g clip-path="url(#ddf28286a2)"><g clip-path="url(#b9cd43cfcd)"><path fill="#272838" d="M 6.605469 7.929688 L 0.933594 7.445312 L 1.566406 0.0898438 L 7.238281 0.574219 Z M 6.605469 7.929688 " fill-opacity="1" fill-rule="nonzero"/></g></g></g></g></g></g></g></g><g clip-path="url(#f971767edf)"><g clip-path="url(#26b2f3e56f)"><g clip-path="url(#0c398a9fbf)"><g transform="matrix(1, 0, 0, 1, 604, 467)"><g clip-path="url(#43d39542e7)"><g clip-path="url(#2c619f46aa)"><g clip-path="url(#ec315d61ee)"><g clip-path="url(#4281f503da)"><path fill="#272838" d="M 9.03125 2.300781 L 7.765625 8.621094 L -0.429688 6.984375 L 0.835938 0.664062 Z M 9.03125 2.300781 " fill-opacity="1" fill-rule="nonzero"/></g></g></g></g></g></g></g></g><g clip-path="url(#bed33bf611)"><g clip-path="url(#ee134ca6f2)"><g clip-path="url(#00cb28c771)"><g transform="matrix(1, 0, 0, 1, 615, 466)"><g clip-path="url(#02190ab18c)"><g clip-path="url(#88989b00e4)"><g clip-path="url(#e732c243e9)"><g clip-path="url(#6dbc1d4a19)"><path fill="#272838" d="M 1.097656 -0.0429688 L 7.511719 0.585938 L 6.699219 8.902344 L 0.285156 8.277344 Z M 1.097656 -0.0429688 " fill-opacity="1" fill-rule="nonzero"/></g></g></g></g></g></g></g></g><g clip-path="url(#22be5de2a8)"><g clip-path="url(#346f3d80f2)"><g transform="matrix(1, 0, 0, 1, 614, 475)"><g clip-path="url(#f97a422423)"><g clip-path="url(#49fbb9882e)"><g clip-path="url(#7704e358fb)"><path fill="#272838" d="M 0.714844 6.613281 L 0.714844 0.167969 L 9.074219 0.167969 L 9.074219 6.613281 Z M 0.714844 6.613281 " fill-opacity="1" fill-rule="nonzero"/></g></g></g></g></g></g><g clip-path="url(#509ea818aa)"><g clip-path="url(#b004c57dad)"><g clip-path="url(#cd32e04c50)"><g transform="matrix(1, 0, 0, 1, 661, 474)"><g clip-path="url(#8ec4a9b8c3)"><g clip-path="url(#3d2a0e3127)"><g clip-path="url(#9acd5b17de)"><g clip-path="url(#d01088341f)"><path fill="#272838" d="M 6.675781 8.878906 L 0.261719 8.226562 L 1.105469 -0.0898438 L 7.519531 0.5625 Z M 6.675781 8.878906 " fill-opacity="1" fill-rule="nonzero"/></g></g></g></g></g></g></g></g><g clip-path="url(#4bccf6529f)"><g clip-path="url(#350a5fe1d6)"><g transform="matrix(1, 0, 0, 1, 660, 467)"><g clip-path="url(#fec42acda7)"><g clip-path="url(#3347b39f18)"><g clip-path="url(#21bed12ca1)"><path fill="#272838" d="M 9.074219 0.476562 L 9.074219 6.921875 L 0.714844 6.921875 L 0.714844 0.476562 Z M 9.074219 0.476562 " fill-opacity="1" fill-rule="nonzero"/></g></g></g></g></g></g><g clip-path="url(#2a6ae9fb2f)"><g clip-path="url(#5a12f6de32)"><g clip-path="url(#7675ad08b5)"><g transform="matrix(1, 0, 0, 1, 660, 344)"><g clip-path="url(#6409139e19)"><g clip-path="url(#2af161d527)"><g clip-path="url(#57510560da)"><g clip-path="url(#2e9c42cb6c)"><path fill="#272838" d="M 9.601562 1.371094 L 9.042969 7.792969 L 0.714844 7.066406 L 1.277344 0.644531 Z M 9.601562 1.371094 " fill-opacity="1" fill-rule="nonzero"/></g></g></g></g></g></g></g></g><g clip-path="url(#7d86567e9e)"><g clip-path="url(#55d7aa9f17)"><g transform="matrix(1, 0, 0, 1, 662, 378)"><g clip-path="url(#23c4c00a2f)"><g clip-path="url(#d0f9be6355)"><g clip-path="url(#875b90106a)"><path fill="#272838" d="M 6.519531 8.621094 L 0.0742188 8.621094 L 0.0742188 0.261719 L 6.519531 0.261719 Z M 6.519531 8.621094 " fill-opacity="1" fill-rule="nonzero"/></g></g></g></g></g></g></svg>